<svg xmlns="http://www.w3.org/2000/svg" viewBox="0 0 500 500"><g id="freepik--background-simple--inject-98"><path d="M478.52,221.63c6.13-53.85-12.08-107.93-50.3-146.36-18.8-18.89-44.5-36.69-78.65-45.29C253.79,5.85,191.72,28,160.69,86.64S40.61,135.21,26.44,236.4,81.09,448.89,197.79,455s101.68-52,165.51-76.94C412.13,359,469.38,302,478.52,221.63Z" style="fill:#92E3A9"></path><path d="M478.52,221.63c6.13-53.85-12.08-107.93-50.3-146.36-18.8-18.89-44.5-36.69-78.65-45.29C253.79,5.85,191.72,28,160.69,86.64S40.61,135.21,26.44,236.4,81.09,448.89,197.79,455s101.68-52,165.51-76.94C412.13,359,469.38,302,478.52,221.63Z" style="fill:#fff;opacity:0.7000000000000001"></path></g><g id="freepik--Plants--inject-98"><g style="opacity:0.15"><path d="M52.59,146.78c5.21.17,16-4.39,16-4.4s-5.16-6.17-5.54-6.52c-4.36-4-15.16-9.26-21-6-4.17,2.35-4.87,7.75-2.22,11.51S48.16,146.63,52.59,146.78Z"></path><path d="M68.85,176.72c4.87-1.16,13.44-7.83,14.12-8.36a138.88,138.88,0,0,0,12.34,13.91c2.56,2.55,5.22,5,7.91,7.51-1.4-.94-2.65-1.77-2.84-1.87-5.28-2.74-17.07-4.92-21.8-.24-3.41,3.37-2.65,8.76.9,11.68s9.41,2.88,13.72,1.85,11.8-6.58,13.74-8.08c1,.94,2.08,1.89,3.13,2.82,5,4.46,10.06,8.9,14.86,13.4,1.7,1.58,3.31,3.21,4.93,4.83-1.25-.84-2.3-1.53-2.47-1.62-5.28-2.74-17.07-4.92-21.8-.24-3.41,3.37-2.65,8.76.89,11.68s9.41,2.88,13.73,1.85,11.07-6.05,13.39-7.81c1.61,1.71,3.22,3.42,4.7,5.14,1,1.21,2,2.3,2.93,3.56l2.79,3.65c1.68,2.39,3.44,4.85,5,7.22,1.12,1.64,2.15,3.22,3.19,4.82-1.66-1.6-5-4.66-5.3-4.88-4.8-3.51-16.13-7.46-21.52-3.55-3.87,2.82-3.94,8.26-.88,11.69s8.87,4.27,13.29,3.9c4.87-.4,14-5.44,15.13-6.08,1.72,2.65,3.37,5.23,4.88,7.7,1.37,2.2,2.63,4.31,3.83,6.33l3.87-1.55c-1.35-2.18-2.8-4.47-4.36-6.89-1.74-2.69-3.65-5.53-5.63-8.43a86.63,86.63,0,0,0,6.87-7.34c4.53,2.17,14.23,3,15.48,3,0,3.16-.07,6.22-.17,9.11-.06,2-.14,3.91-.22,5.75l4.1-1.64c0-1.31.05-2.64.06-4,0-3.2,0-6.62,0-10.13,1.26-.22,11.55-2.08,15.58-4.84,3.66-2.51,7.63-6.73,7.84-11.42s-3.27-8.76-8.06-8.5C190.33,211,184,221.24,182.53,227c-.09.33-.65,4.12-1,6.51,0-1.43,0-2.82-.1-4.3-.07-2.92-.24-5.84-.41-9-.13-1.51-.27-3-.4-4.58s-.41-3.13-.61-4.72c-.53-3.66-1.25-7.35-2.06-11,2.56-.08,11.64-.48,15.65-2.42s8.56-5.49,9.48-10.09-1.91-9.17-6.68-9.63c-6.62-.65-14.39,8.5-16.75,13.95-.15.34-1.41,4.44-2.05,6.71-.51-2.22-1-4.44-1.58-6.66-1.68-6.44-3.58-12.89-5.45-19.35-.57-2-1.12-4-1.67-5.92.91,0,11.71-.26,16.21-2.43,4-1.93,8.55-5.49,9.48-10.1s-1.91-9.16-6.68-9.62c-6.62-.65-14.39,8.5-16.76,13.95-.17.41-2,6.31-2.35,7.84-1.23-4.35-2.4-8.7-3.39-13a139.43,139.43,0,0,1-2.94-17.75c.43,0,11.7-.21,16.31-2.43,4-1.93,8.56-5.49,9.48-10.1s-1.91-9.16-6.68-9.62c-6.62-.65-14.39,8.5-16.75,14-.19.43-2.12,6.78-2.39,8,0-.35-.1-.7-.13-1a101.4,101.4,0,0,1,.32-18c.31-3.31.79-6.46,1.33-9.51,2.1.18,11.73.88,16.09-.66,4.19-1.47,9.11-4.52,10.53-9s-.89-9.32-5.58-10.3c-6.51-1.37-15.24,6.86-18.18,12-.16.28-1.48,3.31-2.4,5.54.26-1.38.51-2.8.79-4.11,1-4.92,2.28-9.37,3.42-13.3.67-2.22,1.32-4.23,1.94-6.09,2.16-.9,10.8-4.65,13.91-8s6-8.21,5.2-12.84S184.63,52,180,53.25c-6.41,1.79-10.36,13.12-10.6,19.06,0,.51.58,8.57.69,8.52l.13,0c-.63,1.78-1.3,3.7-2,5.82-1.23,3.91-2.58,8.34-3.72,13.26a139.22,139.22,0,0,0-2.95,16,101.93,101.93,0,0,0-.71,18.24,1.64,1.64,0,0,0,0,.22c-.69-1.83-2.79-6.86-3-7.23-2.89-5.19-11.53-13.52-18-12.23-4.7.94-7.05,5.85-5.7,10.24s6.26,7.59,10.43,9.11c4.7,1.72,15.52.89,16.38.82a140.4,140.4,0,0,0,2.62,18.41c.73,3.54,1.57,7.09,2.46,10.63-.65-1.56-1.23-2.94-1.34-3.13-2.89-5.19-11.52-13.52-18.05-12.23-4.7.94-7,5.85-5.69,10.24s6.26,7.59,10.43,9.11,13.46,1,15.91.85c.35,1.36.69,2.72,1.05,4.07,1.73,6.5,3.49,13,5,19.38.54,2.26,1,4.5,1.44,6.74-.57-1.38-1.07-2.54-1.16-2.71-2.89-5.19-11.53-13.52-18.05-12.23-4.7.94-7,5.85-5.7,10.25s6.26,7.58,10.43,9.1,12.57,1.07,15.47.88c.4,2.31.8,4.62,1.08,6.88.16,1.55.42,3,.49,4.59s.21,3.07.31,4.58c.08,2.92.19,5.94.21,8.79,0,2,0,3.88,0,5.78-.51-2.25-1.6-6.64-1.73-7a30.62,30.62,0,0,0-9.31-12.3,9.14,9.14,0,0,0-.75-1.58c-2.36-4-7.57-5.5-11.41-2.64-5.34,4-5,16-3.05,21.59.12.33,1.74,3.79,2.8,6-.81-1.18-1.59-2.33-2.45-3.54-1.68-2.39-3.43-4.73-5.29-7.25l-2.87-3.6c-.93-1.22-2.07-2.39-3.1-3.6-2.47-2.76-5.11-5.44-7.82-8.07,2.09-1.48,9.44-6.82,11.72-10.65s4.11-9.3,2.34-13.65-6.65-6.59-10.88-4.35c-5.88,3.12-7.32,15-6.28,20.88.06.37,1.28,4.48,2,6.73-1.64-1.58-3.27-3.15-5-4.69-5-4.44-10.1-8.78-15.21-13.13-1.57-1.33-3.12-2.67-4.67-4,.75-.51,9.63-6.68,12.18-11,2.27-3.81,4.11-9.29,2.34-13.65s-6.65-6.58-10.88-4.34c-5.88,3.12-7.32,15-6.28,20.88.08.44,1.84,6.36,2.36,7.84-3.42-3-6.8-5.93-10-9A139.22,139.22,0,0,1,84.4,167.73c.35-.24,9.64-6.63,12.26-11,2.27-3.82,4.1-9.3,2.33-13.66s-6.64-6.58-10.88-4.34c-5.88,3.12-7.31,15-6.28,20.88.08.46,2,6.82,2.41,7.95-.22-.27-.48-.52-.69-.8a100.85,100.85,0,0,1-9.68-15.21c-1.57-2.93-2.9-5.82-4.14-8.66,1.86-1,10.27-5.73,13.06-9.43,2.68-3.54,5.11-8.79,3.83-13.31s-5.89-7.28-10.34-5.51c-6.19,2.45-8.92,14.13-8.53,20.06,0,.32.59,3.58,1,5.94-.54-1.29-1.12-2.61-1.61-3.86-1.85-4.68-3.26-9.08-4.48-13-.67-2.23-1.23-4.25-1.74-6.15,1.3-1.95,6.44-9.84,7.2-14.32s.48-10.16-2.74-13.58S56.85,86,53.71,89.6c-4.36,5-1.4,16.66,1.67,21.74.27.44,5.22,6.83,5.29,6.73l.07-.11c.46,1.84,1,3.8,1.56,5.94,1.13,3.94,2.45,8.38,4.21,13.12a140,140,0,0,0,6.39,15,104.07,104.07,0,0,0,9.47,15.61,1.15,1.15,0,0,1,.14.17c-1.58-1.14-6.11-4.18-6.48-4.38-5.27-2.74-17.07-4.92-21.8-.24-3.4,3.37-2.65,8.76.9,11.68S64.54,177.75,68.85,176.72Z"></path><path d="M163.29,105.47c.12,0-.9-8-1-8.5-1.42-5.77-7.54-16.08-14.18-16.56-4.78-.34-8.34,3.78-8.2,8.37s4,9,7.66,11.54C151.79,103.34,163.28,105.46,163.29,105.47Z"></path></g><g style="opacity:0.15"><path d="M24,339.67c3.65.12,11.17-3.08,11.18-3.08s-3.61-4.32-3.88-4.57c-3-2.82-10.62-6.48-14.67-4.19a5.52,5.52,0,0,0-1.56,8.06C17,338.57,20.92,339.57,24,339.67Z"></path><path d="M35.41,360.63c3.41-.81,9.41-5.48,9.88-5.85a99.22,99.22,0,0,0,8.65,9.74c1.79,1.78,3.65,3.53,5.54,5.25-1-.65-1.86-1.24-2-1.31-3.7-1.91-12-3.44-15.27-.16a5.51,5.51,0,0,0,.63,8.17c2.54,2.1,6.59,2,9.61,1.3s8.26-4.61,9.62-5.65c.73.65,1.45,1.31,2.19,2,3.52,3.13,7,6.24,10.41,9.39,1.18,1.11,2.31,2.24,3.44,3.38-.87-.59-1.6-1.07-1.73-1.13-3.69-1.92-12-3.45-15.26-.17a5.52,5.52,0,0,0,.63,8.18c2.54,2.09,6.59,2,9.61,1.29s7.75-4.23,9.37-5.47c1.13,1.2,2.26,2.39,3.29,3.6.69.85,1.41,1.61,2.06,2.49s1.3,1.72,2,2.56c1.18,1.67,2.4,3.39,3.51,5.05.79,1.15,1.51,2.26,2.24,3.38-1.17-1.12-3.5-3.26-3.72-3.42C86.71,400.76,78.78,398,75,400.73a5.52,5.52,0,0,0-.62,8.18c2.2,2.45,6.21,3,9.31,2.73,3.41-.28,9.8-3.81,10.59-4.25,1.21,1.85,2.36,3.66,3.42,5.38,1,1.55,1.84,3,2.68,4.43l2.71-1.08c-.95-1.53-2-3.13-3.06-4.82-1.21-1.88-2.55-3.87-3.94-5.9a58.37,58.37,0,0,0,4.81-5.14c3.17,1.52,10,2.06,10.84,2.13,0,2.2,0,4.35-.12,6.38q-.06,2.09-.15,4l2.87-1.15c0-.92,0-1.85,0-2.82,0-2.24,0-4.63,0-7.09.88-.16,8.08-1.46,10.91-3.39,2.56-1.76,5.33-4.71,5.49-8a5.52,5.52,0,0,0-5.65-5.95c-4.65.26-9.06,7.41-10.11,11.43-.07.24-.45,2.89-.67,4.57,0-1,0-2-.07-3-.05-2-.17-4.08-.29-6.28-.09-1.06-.19-2.12-.28-3.2s-.29-2.2-.42-3.31c-.38-2.56-.88-5.14-1.45-7.73,1.79-.06,8.15-.34,11-1.69s6-3.85,6.64-7.07a5.52,5.52,0,0,0-4.68-6.74c-4.64-.45-10.08,5.95-11.73,9.77-.1.24-1,3.11-1.43,4.69-.36-1.55-.7-3.1-1.11-4.66-1.17-4.5-2.51-9-3.81-13.54-.4-1.38-.79-2.77-1.18-4.15.64,0,8.2-.18,11.35-1.7,2.8-1.35,6-3.85,6.64-7.07a5.51,5.51,0,0,0-4.68-6.74c-4.63-.45-10.07,5.95-11.73,9.77-.12.28-1.38,4.42-1.65,5.49-.85-3-1.68-6.09-2.37-9.13A98.59,98.59,0,0,1,101,331.66c.29,0,8.19-.15,11.41-1.7,2.8-1.35,6-3.85,6.64-7.07a5.51,5.51,0,0,0-4.68-6.74c-4.63-.45-10.07,6-11.73,9.77-.13.3-1.48,4.75-1.66,5.57,0-.24-.08-.49-.1-.73a71.26,71.26,0,0,1,.22-12.62c.22-2.32.56-4.52.94-6.66,1.47.13,8.21.62,11.26-.46s6.38-3.16,7.38-6.3a5.51,5.51,0,0,0-3.91-7.21c-4.56-1-10.67,4.81-12.73,8.42-.11.2-1,2.32-1.68,3.88.18-1,.36-2,.55-2.88.73-3.45,1.6-6.56,2.4-9.31.47-1.56.92-3,1.36-4.27,1.51-.63,7.56-3.25,9.73-5.58s4.2-5.74,3.64-9a5.5,5.5,0,0,0-6.79-4.6c-4.49,1.25-7.25,9.18-7.42,13.34,0,.36.41,6,.49,6l.09,0c-.45,1.25-.91,2.59-1.39,4.07-.86,2.74-1.8,5.84-2.61,9.29a98.53,98.53,0,0,0-2.06,11.23,71.38,71.38,0,0,0-.5,12.78.77.77,0,0,0,0,.15c-.49-1.28-2-4.8-2.1-5.06-2-3.63-8.07-9.47-12.64-8.56a5.5,5.5,0,0,0-4,7.17c1,3.14,4.38,5.31,7.3,6.38,3.29,1.2,10.87.61,11.47.57a97.75,97.75,0,0,0,1.83,12.89c.51,2.48,1.1,5,1.72,7.44-.45-1.09-.86-2.06-.93-2.19-2-3.64-8.07-9.47-12.64-8.56a5.52,5.52,0,0,0-4,7.17c1,3.14,4.38,5.31,7.3,6.37s9.43.72,11.14.6c.25.95.49,1.9.74,2.85,1.21,4.55,2.44,9.08,3.51,13.57.38,1.58.69,3.15,1,4.72-.41-1-.75-1.78-.82-1.9-2-3.64-8.07-9.47-12.63-8.56a5.5,5.5,0,0,0-4,7.17c1,3.14,4.38,5.31,7.3,6.37s8.8.75,10.83.62c.28,1.62.56,3.24.76,4.82.11,1.08.29,2.11.34,3.2s.14,2.16.21,3.22c.06,2,.14,4.15.15,6.15,0,1.39,0,2.71,0,4.05-.35-1.58-1.12-4.66-1.21-4.91A21.4,21.4,0,0,0,104,388a6.5,6.5,0,0,0-.52-1.1,5.5,5.5,0,0,0-8-1.85c-3.74,2.78-3.47,11.17-2.13,15.11.08.23,1.21,2.66,2,4.18-.58-.83-1.12-1.64-1.72-2.48-1.18-1.68-2.4-3.31-3.71-5.08l-2-2.52c-.65-.85-1.45-1.67-2.18-2.52-1.73-1.93-3.57-3.8-5.47-5.65,1.46-1,6.61-4.78,8.21-7.46s2.87-6.51,1.63-9.55a5.49,5.49,0,0,0-7.61-3c-4.12,2.18-5.13,10.52-4.4,14.61,0,.26.9,3.14,1.4,4.71-1.16-1.1-2.3-2.2-3.5-3.28-3.46-3.11-7.07-6.15-10.65-9.19-1.1-.93-2.18-1.88-3.27-2.81.53-.37,6.74-4.68,8.53-7.68,1.59-2.67,2.87-6.51,1.64-9.56a5.52,5.52,0,0,0-7.62-3c-4.12,2.18-5.12,10.52-4.4,14.62.06.3,1.29,4.45,1.65,5.48-2.39-2.06-4.76-4.15-7-6.3a98.14,98.14,0,0,1-8.56-9.22c.24-.17,6.75-4.65,8.58-7.72,1.59-2.67,2.87-6.51,1.63-9.56a5.51,5.51,0,0,0-7.61-3c-4.12,2.18-5.13,10.52-4.4,14.62.06.32,1.39,4.77,1.68,5.56-.15-.19-.33-.36-.48-.56A71.73,71.73,0,0,1,38.93,343c-1.1-2.06-2-4.08-2.9-6.07,1.3-.71,7.19-4,9.14-6.6s3.58-6.16,2.68-9.32a5.52,5.52,0,0,0-7.24-3.86c-4.33,1.72-6.24,9.9-6,14.05,0,.22.42,2.5.74,4.16-.38-.91-.79-1.83-1.13-2.71-1.3-3.27-2.28-6.35-3.14-9.08-.47-1.56-.86-3-1.22-4.31.91-1.36,4.51-6.89,5-10s.34-7.11-1.92-9.5a5.51,5.51,0,0,0-8.2-.09c-3,3.52-1,11.66,1.17,15.22.19.31,3.65,4.78,3.7,4.71l.06-.08c.31,1.29.67,2.66,1.09,4.16.79,2.76,1.71,5.87,2.94,9.18a96.08,96.08,0,0,0,4.48,10.51,71.81,71.81,0,0,0,6.63,10.93l.1.12c-1.11-.8-4.28-2.93-4.54-3.06-3.69-1.92-11.95-3.45-15.26-.17a5.51,5.51,0,0,0,.62,8.18C28.34,361.43,32.39,361.35,35.41,360.63Z"></path><path d="M101.53,310.74c.08,0-.63-5.59-.71-5.94-1-4-5.29-11.27-9.93-11.6a5.51,5.51,0,0,0-5.74,5.86c.1,3.29,2.82,6.29,5.36,8.08C93.48,309.26,101.52,310.74,101.53,310.74Z"></path></g><g style="opacity:0.15"><path d="M330.22,163.63c1.6,2.28,7,5.42,7,5.43s1-4.2,1-4.47c.33-3.17-.9-9.47-4.16-10.91a4.22,4.22,0,0,0-5.65,2.75C327.66,158.82,328.85,161.68,330.22,163.63Z"></path><path d="M322.61,180.21c2.06,1.71,7.67,3.24,8.12,3.36a74.29,74.29,0,0,0-2,9.76c-.27,1.92-.48,3.85-.67,5.8-.05-.9-.1-1.71-.11-1.82-.53-3.14-3.38-8.89-6.9-9.41a4.21,4.21,0,0,0-4.72,4.13c-.12,2.51,1.79,5,3.62,6.48s6.61,2.94,7.87,3.29c-.07.75-.14,1.49-.2,2.24-.3,3.59-.58,7.17-1,10.68-.13,1.23-.31,2.44-.48,3.66,0-.8-.09-1.48-.1-1.58-.53-3.14-3.38-8.9-6.9-9.42a4.22,4.22,0,0,0-4.72,4.14c-.12,2.51,1.79,5,3.62,6.47s6.14,2.8,7.64,3.23c-.21,1.24-.43,2.48-.69,3.67-.2.8-.33,1.6-.58,2.4s-.45,1.58-.67,2.36c-.48,1.49-1,3-1.48,4.47-.34,1-.69,2-1,2.92.15-1.23.39-3.64.39-3.84,0-3.18-2-9.31-5.4-10.36a4.21,4.21,0,0,0-5.28,3.38c-.5,2.46,1,5.17,2.59,6.95,1.74,2,6.83,4.24,7.47,4.53-.58,1.58-1.16,3.12-1.73,4.56s-1,2.51-1.48,3.67l1.9,1.16c.5-1.28,1-2.63,1.55-4.08.6-1.61,1.2-3.34,1.8-5.12a46.49,46.49,0,0,0,5.36.59c.52,2.63,3.31,7,3.67,7.61-1.36,1-2.69,2-4,2.85-.87.61-1.72,1.2-2.53,1.75l2,1.23,1.74-1.26c1.39-1,2.84-2.13,4.33-3.28.5.47,4.6,4.28,7.08,5.12,2.25.76,5.33,1.1,7.41-.31a4.22,4.22,0,0,0,1.05-6.19c-2.29-2.73-8.69-2.14-11.63-.94-.18.07-2,1.05-3.1,1.69.6-.48,1.19-.93,1.81-1.43,1.23-1,2.42-2,3.71-3.06l1.83-1.64c.62-.54,1.21-1.18,1.83-1.78,1.4-1.4,2.74-2.9,4.07-4.43.85,1.07,3.94,4.83,6.06,5.93s5.1,1.9,7.37.82a4.22,4.22,0,0,0,2-6c-1.85-3-8.26-3.43-11.36-2.69-.19,0-2.35.82-3.53,1.28.79-.93,1.58-1.86,2.35-2.82,2.21-2.79,4.37-5.68,6.53-8.55l2-2.62c.3.38,3.88,4.93,6.25,6.16,2.11,1.1,5.1,1.91,7.37.82a4.21,4.21,0,0,0,2-5.95c-1.85-3.05-8.26-3.44-11.36-2.7-.23.06-3.34,1.19-4.11,1.51,1.47-1.92,3-3.82,4.49-5.64a74.63,74.63,0,0,1,6.66-6.95c.14.17,3.85,4.94,6.28,6.2,2.11,1.09,5.1,1.9,7.37.82a4.23,4.23,0,0,0,2-6c-1.85-3-8.27-3.43-11.36-2.69-.24.06-3.59,1.27-4.18,1.53.14-.12.27-.27.41-.39a54,54,0,0,1,7.82-5.65c1.52-.93,3-1.74,4.5-2.49.6,1,3.39,5.31,5.46,6.69s4.86,2.45,7.23,1.62a4.21,4.21,0,0,0,2.62-5.7c-1.5-3.23-7.83-4.33-11-3.93-.17,0-1.89.43-3.14.75.67-.33,1.36-.68,2-1,2.44-1.14,4.75-2,6.8-2.8,1.17-.43,2.23-.8,3.23-1.13,1.08.63,5.46,3.13,7.88,3.39s5.45-.06,7.17-1.89a4.22,4.22,0,0,0-.3-6.27c-2.82-2.17-9-.22-11.57,1.58-.22.16-3.48,3-3.43,3l.07,0c-1,.3-2,.63-3.13,1-2.07.73-4.4,1.57-6.88,2.66a72.87,72.87,0,0,0-7.82,3.9,55.22,55.22,0,0,0-8,5.55s-.05.06-.08.08c.56-.88,2-3.4,2.13-3.6,1.3-2.91,2.1-9.28-.56-11.66a4.2,4.2,0,0,0-6.21.84c-1.49,2-1.24,5.12-.56,7.4.78,2.57,4.61,6.93,4.92,7.28a73.18,73.18,0,0,0-7.05,7c-1.28,1.45-2.53,2.95-3.76,4.47.46-.78.86-1.48.91-1.58,1.29-2.91,2.09-9.28-.56-11.66a4.21,4.21,0,0,0-6.22.84c-1.48,2-1.24,5.12-.55,7.4s3.89,6.1,4.75,7.09l-1.41,1.76c-2.23,2.83-4.44,5.66-6.69,8.37-.8,1-1.61,1.87-2.43,2.78.41-.69.75-1.27.79-1.37,1.29-2.9,2.09-9.28-.56-11.66a4.22,4.22,0,0,0-6.22.85c-1.48,2-1.24,5.12-.55,7.4s3.58,5.72,4.59,6.91c-.86.91-1.72,1.83-2.6,2.67-.61.56-1.16,1.15-1.8,1.68l-1.87,1.61c-1.22,1-2.48,2-3.7,2.91-.84.65-1.65,1.25-2.47,1.86.8-.94,2.33-2.82,2.44-3a16.47,16.47,0,0,0,2.28-7.94,4.67,4.67,0,0,0,.43-.83,4.21,4.21,0,0,0-2.53-5.74c-3.42-1-8.43,3-10.23,5.63-.1.16-1.06,2-1.65,3.12l.73-2.19c.48-1.49.92-3,1.4-4.6.21-.78.41-1.58.62-2.38s.36-1.65.55-2.49c.39-1.94.69-3.93.95-5.94,1.3.42,5.95,1.85,8.32,1.6s5.31-1.23,6.6-3.38a4.22,4.22,0,0,0-1.63-6.06c-3.22-1.52-8.79,1.69-11,4-.14.14-1.51,2-2.24,3,.14-1.21.29-2.42.4-3.64.31-3.55.52-7.15.74-10.74.06-1.1.14-2.19.22-3.29.46.16,6,2,8.61,1.7,2.37-.26,5.31-1.23,6.6-3.39a4.22,4.22,0,0,0-1.63-6.06c-3.23-1.52-8.79,1.7-11,4-.16.18-2.13,2.83-2.6,3.53.17-2.41.36-4.82.64-7.18a75,75,0,0,1,1.72-9.48c.21.07,5.94,2,8.66,1.71,2.36-.25,5.3-1.23,6.6-3.38a4.21,4.21,0,0,0-1.64-6.06c-3.22-1.52-8.79,1.69-11,4-.17.18-2.29,3-2.63,3.58,0-.18.07-.37.12-.55a54.16,54.16,0,0,1,3.4-9c.76-1.61,1.57-3.11,2.39-4.56,1,.47,5.75,2.56,8.23,2.57s5.41-.64,6.93-2.64a4.21,4.21,0,0,0-1-6.2c-3-1.86-8.92.72-11.33,2.79-.13.11-1.34,1.41-2.21,2.36.38-.64.76-1.32,1.14-1.93,1.41-2.29,2.84-4.31,4.12-6.09.74-1,1.43-1.89,2.08-2.72,1.25-.07,6.28-.4,8.44-1.52s4.51-3.05,4.94-5.53a4.21,4.21,0,0,0-3.71-5.06c-3.55-.26-7.59,4.75-8.78,7.7-.1.25-1.25,4.42-1.18,4.42h.07c-.64.78-1.32,1.63-2,2.57-1.33,1.76-2.81,3.75-4.27,6a76.26,76.26,0,0,0-4.38,7.56,55.3,55.3,0,0,0-3.64,9.08l0,.11c0-1-.17-4-.21-4.18-.52-3.14-3.37-8.9-6.9-9.42a4.22,4.22,0,0,0-4.72,4.14C318.88,176.25,320.79,178.69,322.61,180.21Z"></path><path d="M383.48,197.78c0,.06,3.14-2.95,3.31-3.17,2-2.46,4.47-8.4,2.54-11.39a4.21,4.21,0,0,0-6.22-.82c-2,1.56-2.55,4.61-2.49,7C380.7,192.17,383.48,197.77,383.48,197.78Z"></path></g></g><g id="freepik--device-3--inject-98"><path d="M210.73,109.35V83.18c0-5.12-4.88-15.48-12.94-11.3-14.46,7.51-12.19,41.93-12.82,59.49-1.37,38.09-1.68,75.88-1,114" style="fill:none;stroke:#263238;stroke-miterlimit:10;stroke-width:4px"></path><path d="M210.73,104.66h0a3.41,3.41,0,0,0-3.41,3.4v24.42h6.81V108.06A3.4,3.4,0,0,0,210.73,104.66Z" style="fill:#263238;stroke:#263238;stroke-miterlimit:10"></path><rect x="204.03" y="129.45" width="13.4" height="27.82" style="fill:#263238;stroke:#263238;stroke-miterlimit:10"></rect><rect x="185.6" y="149.94" width="14.78" height="8.69" style="fill:#fff;stroke:#263238;stroke-miterlimit:10"></rect><rect x="191.5" y="157.64" width="142.95" height="273.93" style="fill:#92E3A9;stroke:#263238;stroke-linejoin:round"></rect><path d="M258.3,176h57.84a4.07,4.07,0,0,1,4.07,4.07V346.45a4.07,4.07,0,0,1-4.07,4.07H258.3a0,0,0,0,1,0,0V176A0,0,0,0,1,258.3,176Z" style="fill:#c4c4c4;stroke:#263238;stroke-linejoin:round"></path><polygon points="251.83 262.74 251.83 247.53 245.85 247.53 245.85 262.74 242.68 262.74 248.86 279.03 255.04 262.74 251.83 262.74" style="fill:none;stroke:#263238;stroke-linejoin:round"></polygon><polyline points="220.83 158.66 220.83 378.77 334.33 378.77" style="fill:none;stroke:#263238;stroke-linejoin:round"></polyline><rect x="164.89" y="157.64" width="26.61" height="273.93" style="fill:#92E3A9;stroke:#263238;stroke-linejoin:round"></rect><rect x="164.89" y="157.64" width="26.61" height="273.93" style="opacity:0.42"></rect><rect x="164.89" y="157.64" width="26.61" height="273.93" style="fill:none;stroke:#263238;stroke-linejoin:round"></rect><rect x="162.72" y="202.6" width="17.38" height="109.87" style="fill:#263238;stroke:#263238;stroke-miterlimit:10"></rect><polygon points="180.09 202.6 188.24 196.68 188.24 321.05 180.09 312.47 180.09 202.6" style="fill:#666;stroke:#263238;stroke-linejoin:round"></polygon><polygon points="165.43 196.68 162.72 202.6 180.09 202.6 188.24 196.68 165.43 196.68" style="fill:#7a7a7a;stroke:#263238;stroke-linejoin:round"></polygon><polygon points="162.72 312.47 165.43 321.05 188.24 321.05 180.09 312.47 162.72 312.47" style="fill:#575757;stroke:#263238;stroke-linejoin:round"></polygon><rect x="168.73" y="215.7" width="8.1" height="29.4" style="fill:#666;stroke:#263238;stroke-miterlimit:10"></rect><polygon points="169.82 212.72 162.47 212.72 162.47 245.97 173.76 245.97 173.76 219.49 169.82 212.72" style="fill:#fff;stroke:#263238;stroke-miterlimit:10"></polygon><polygon points="166.22 212.72 158.87 212.72 158.87 245.97 170.16 245.97 170.16 219.49 166.22 212.72" style="fill:#fff;stroke:#263238;stroke-miterlimit:10"></polygon><line x1="170.16" y1="219.49" x2="173.76" y2="219.49" style="fill:none;stroke:#263238;stroke-miterlimit:10"></line><polygon points="162.88 222.6 164.53 216.63 161.23 216.63 162.88 222.6" style="fill:#263238"></polygon><rect x="168.73" y="254.4" width="8.1" height="18.13" style="fill:#666;stroke:#263238;stroke-miterlimit:10"></rect><polygon points="169.82 251.43 162.47 251.43 162.47 273.4 173.76 273.4 173.76 258.19 169.82 251.43" style="fill:#fff;stroke:#263238;stroke-miterlimit:10"></polygon><polygon points="166.22 251.43 158.87 251.43 158.87 273.4 170.16 273.4 170.16 258.19 166.22 251.43" style="fill:#fff;stroke:#263238;stroke-miterlimit:10"></polygon><line x1="170.16" y1="258.19" x2="173.76" y2="258.19" style="fill:none;stroke:#263238;stroke-miterlimit:10"></line><polygon points="162.88 253.83 161.23 259.8 164.53 259.8 162.88 253.83" style="fill:#263238"></polygon><polygon points="162.88 259.83 161.23 265.8 164.53 265.8 162.88 259.83" style="fill:#263238"></polygon><rect x="168.73" y="281.4" width="8.1" height="18.13" style="fill:#666;stroke:#263238;stroke-miterlimit:10"></rect><polygon points="169.82 278.43 162.47 278.43 162.47 300.4 173.76 300.4 173.76 285.19 169.82 278.43" style="fill:#fff;stroke:#263238;stroke-miterlimit:10"></polygon><polygon points="166.22 278.43 158.87 278.43 158.87 300.4 170.16 300.4 170.16 285.19 166.22 278.43" style="fill:#fff;stroke:#263238;stroke-miterlimit:10"></polygon><line x1="170.16" y1="285.19" x2="173.76" y2="285.19" style="fill:none;stroke:#263238;stroke-miterlimit:10"></line><polygon points="162.88 294 164.53 288.03 161.23 288.03 162.88 294" style="fill:#263238"></polygon><polygon points="162.88 288 164.53 282.03 161.23 282.03 162.88 288" style="fill:#263238"></polygon><line x1="172.07" y1="196.95" x2="172.07" y2="158.63" style="fill:none;stroke:#263238;stroke-miterlimit:10"></line><line x1="172.07" y1="431.36" x2="172.07" y2="322.04" style="fill:none;stroke:#263238;stroke-miterlimit:10"></line><line x1="185.6" y1="196.95" x2="185.6" y2="158.63" style="fill:none;stroke:#263238;stroke-miterlimit:10"></line><line x1="185.6" y1="431.36" x2="185.6" y2="322.04" style="fill:none;stroke:#263238;stroke-miterlimit:10"></line><rect x="258.3" y="239.62" width="21.96" height="52.59" style="fill:#fff;stroke:#263238;stroke-linejoin:round"></rect><path d="M278,307.61a11.63,11.63,0,0,0-19.71-8.39V316A11.63,11.63,0,0,0,278,307.61Z" style="fill:#263238"></path><path d="M266.36,207.31a11.59,11.59,0,0,0-8.06,3.25v16.79a11.64,11.64,0,1,0,8.06-20Z" style="fill:#263238"></path></g><g id="freepik--device-2--inject-98"><rect x="206.14" y="308.24" width="200.48" height="123.34" rx="8.66" transform="translate(612.76 739.81) rotate(180)" style="fill:#263238;stroke:#263238;stroke-miterlimit:10"></rect><rect x="203.46" y="320.6" width="5.37" height="27.31" transform="translate(412.3 668.51) rotate(180)" style="fill:#263238;stroke:#263238;stroke-miterlimit:10"></rect><rect x="212.02" y="308.24" width="200.48" height="123.34" rx="8.66" transform="translate(624.51 739.81) rotate(180)" style="fill:#fff;stroke:#263238;stroke-miterlimit:10"></rect><rect x="219.65" y="338.33" width="185.22" height="86.46" rx="6.49" transform="translate(624.51 763.12) rotate(180)" style="fill:#fff;stroke:#263238;stroke-miterlimit:10"></rect><path d="M266.56,332.82H358a7,7,0,0,0,6.6-4.62l7.25-20H252.7l7.26,20A7,7,0,0,0,266.56,332.82Z" style="fill:#fff;stroke:#263238;stroke-miterlimit:10"></path><rect x="252.07" y="359.1" width="120.37" height="33.91" rx="4.58" transform="translate(624.51 752.1) rotate(180)" style="fill:#92E3A9;stroke:#263238;stroke-miterlimit:10"></rect><rect x="288.1" y="365.46" width="48.32" height="21.19" transform="translate(624.51 752.1) rotate(180)" style="fill:#666;stroke:#263238;stroke-linejoin:round"></rect><circle cx="268.6" cy="376.05" r="12.45" transform="translate(-191.59 333.8) rotate(-49.22)" style="fill:#263238;stroke:#263238;stroke-miterlimit:10"></circle><path d="M258.9,377a9.57,9.57,0,0,0,2.08,5.13l1.66-1.66,1.46,1.46-1.67,1.67a9.6,9.6,0,0,0,5.14,2.15v-2.38h2.06v2.38a9.6,9.6,0,0,0,5.14-2.15l-1.67-1.67,1.46-1.46,1.66,1.66A9.73,9.73,0,0,0,278.3,377H276v-2.06h2.29a9.69,9.69,0,0,0-2.14-5.05l-1.58,1.58L273.1,370l1.57-1.58a9.73,9.73,0,0,0-5-2.07v2.21h-2.06v-2.21a9.73,9.73,0,0,0-5,2.07L264.1,370l-1.46,1.45-1.58-1.58a9.69,9.69,0,0,0-2.14,5.05h2.29V377Z" style="fill:#fff;stroke:#263238;stroke-miterlimit:10"></path><circle cx="355.35" cy="376.05" r="12.45" transform="translate(-77.25 92.25) rotate(-13.35)" style="fill:#263238;stroke:#263238;stroke-miterlimit:10"></circle><path d="M345.65,377a9.65,9.65,0,0,0,2.08,5.13l1.66-1.66,1.46,1.46-1.67,1.67a9.6,9.6,0,0,0,5.14,2.15v-2.38h2.06v2.38a9.6,9.6,0,0,0,5.14-2.15l-1.67-1.67,1.46-1.46,1.66,1.66a9.73,9.73,0,0,0,2.08-5.13h-2.31v-2.06H365a9.69,9.69,0,0,0-2.14-5.05l-1.58,1.58L359.85,370l1.57-1.58a9.73,9.73,0,0,0-5-2.07v2.21h-2.06v-2.21a9.73,9.73,0,0,0-5,2.07l1.57,1.58-1.46,1.45-1.58-1.58a9.69,9.69,0,0,0-2.14,5.05H348V377Z" style="fill:#fff;stroke:#263238;stroke-miterlimit:10"></path><path d="M336.41,365.46h-28.2a48.53,48.53,0,0,0,.51,21.19h27.69Z" style="fill:#263238;stroke:#263238;stroke-miterlimit:10"></path><rect x="409.89" y="320.6" width="5.37" height="27.31" transform="translate(825.15 668.51) rotate(180)" style="fill:#263238;stroke:#263238;stroke-miterlimit:10"></rect><rect x="209.34" y="320.6" width="5.37" height="27.31" transform="translate(424.05 668.51) rotate(180)" style="fill:#fff;stroke:#263238;stroke-miterlimit:10"></rect><circle cx="356.62" cy="315.68" r="3.58" style="fill:#263238;stroke:#263238;stroke-miterlimit:10"></circle><circle cx="269.77" cy="315.68" r="3.58" style="fill:#263238;stroke:#263238;stroke-miterlimit:10"></circle><rect x="336.92" y="314.78" width="7.61" height="7.61" rx="2.42" transform="translate(681.45 637.17) rotate(180)" style="fill:#263238;stroke:#263238;stroke-miterlimit:10"></rect><rect x="281.64" y="314.78" width="7.61" height="7.61" rx="2.42" transform="translate(570.88 637.17) rotate(180)" style="fill:#263238;stroke:#263238;stroke-miterlimit:10"></rect><line x1="371.39" y1="417.74" x2="252.31" y2="417.74" style="fill:none;stroke:#263238;stroke-miterlimit:10"></line><line x1="371.39" y1="411.03" x2="252.31" y2="411.03" style="fill:none;stroke:#263238;stroke-miterlimit:10"></line><line x1="371.39" y1="404.31" x2="252.31" y2="404.31" style="fill:none;stroke:#263238;stroke-miterlimit:10"></line><line x1="371.39" y1="397.6" x2="252.31" y2="397.6" style="fill:none;stroke:#263238;stroke-miterlimit:10"></line><rect x="379.27" y="404.8" width="14.32" height="14.32" transform="translate(772.87 823.93) rotate(180)" style="fill:#263238"></rect><path d="M390.44,406.77a1.29,1.29,0,0,1,.31,1v8.67a1,1,0,0,1-.33.79,1.16,1.16,0,0,1-.81.3h-3.1q-3.93,0-3.93-2.72a2.64,2.64,0,0,1,.52-1.69,2.39,2.39,0,0,1,1.53-.86v0a3.07,3.07,0,0,1-1.85-.87,2.65,2.65,0,0,1-.66-1.88,2.49,2.49,0,0,1,.25-1.1,3.14,3.14,0,0,1,.74-.95,3.57,3.57,0,0,1,1.26-.67,5.47,5.47,0,0,1,1.73-.26h3.51A1.1,1.1,0,0,1,390.44,406.77Zm-3.55,6.07a3,3,0,0,0-1.69.37,1.47,1.47,0,0,0-.51,1.28,1.59,1.59,0,0,0,.1.61,1.05,1.05,0,0,0,.25.4,1,1,0,0,0,.43.23,2.08,2.08,0,0,0,.54.11,6.52,6.52,0,0,0,.68,0h1.89v-3Zm-.25-4.77a8.76,8.76,0,0,0-1,.05,2.24,2.24,0,0,0-.69.23,1.06,1.06,0,0,0-.46.5,2.23,2.23,0,0,0-.14.84,1.9,1.9,0,0,0,.12.72,1.34,1.34,0,0,0,.34.48,1.52,1.52,0,0,0,.57.28,3.68,3.68,0,0,0,.75.13,8.81,8.81,0,0,0,1,0h1.47v-3.27Z" style="fill:#92E3A9"></path><path d="M403.17,314.33a3.14,3.14,0,1,0,3.14-3.13A3.15,3.15,0,0,0,403.17,314.33Z" style="fill:#fff;stroke:#263238;stroke-miterlimit:10"></path><rect x="405.94" y="312.66" width="0.74" height="3.34" transform="translate(720.64 -91.97) rotate(90)" style="fill:#263238"></rect><rect x="405.94" y="312.66" width="0.74" height="3.34" transform="translate(812.61 628.67) rotate(180)" style="fill:#263238"></rect><path d="M307.9,326.16A3.13,3.13,0,1,0,311,323,3.13,3.13,0,0,0,307.9,326.16Z" style="fill:#fff;stroke:#263238;stroke-miterlimit:10"></path><rect x="310.66" y="324.49" width="0.74" height="3.34" transform="translate(637.19 15.13) rotate(90)" style="fill:#263238"></rect><rect x="310.66" y="324.49" width="0.74" height="3.34" transform="translate(622.06 652.31) rotate(180)" style="fill:#263238"></rect><path d="M214.74,314.33a3.13,3.13,0,1,0,3.13-3.13A3.14,3.14,0,0,0,214.74,314.33Z" style="fill:#fff;stroke:#263238;stroke-miterlimit:10"></path><rect x="217.5" y="312.66" width="0.74" height="3.34" transform="translate(532.2 96.46) rotate(90)" style="fill:#263238"></rect><rect x="217.5" y="312.66" width="0.74" height="3.34" transform="translate(435.74 628.67) rotate(180)" style="fill:#263238"></rect><path d="M403.17,425.49a3.14,3.14,0,1,0,3.14-3.13A3.15,3.15,0,0,0,403.17,425.49Z" style="fill:#fff;stroke:#263238;stroke-miterlimit:10"></path><rect x="405.94" y="423.83" width="0.74" height="3.34" transform="translate(831.8 19.19) rotate(90)" style="fill:#263238"></rect><rect x="405.94" y="423.83" width="0.74" height="3.34" transform="translate(812.61 850.99) rotate(180)" style="fill:#263238"></rect><path d="M214.74,425.49a3.13,3.13,0,1,0,3.13-3.13A3.14,3.14,0,0,0,214.74,425.49Z" style="fill:#fff;stroke:#263238;stroke-miterlimit:10"></path><rect x="217.5" y="423.83" width="0.74" height="3.34" transform="translate(643.36 207.62) rotate(90)" style="fill:#263238"></rect><rect x="217.5" y="423.83" width="0.74" height="3.34" transform="translate(435.74 850.99) rotate(180)" style="fill:#263238"></rect></g><g id="freepik--device-1--inject-98"><ellipse cx="160.46" cy="378.81" rx="42.25" ry="35.45" transform="translate(-250.5 397.78) rotate(-69.68)" style="fill:#263238;stroke:#263238;stroke-miterlimit:10"></ellipse><ellipse cx="119.67" cy="394.73" rx="33.82" ry="42.25" transform="translate(-271.66 264.38) rotate(-54.71)" style="fill:#263238;stroke:#263238;stroke-miterlimit:10"></ellipse><ellipse cx="112.67" cy="403.17" rx="23.05" ry="32.68" transform="translate(-281.51 262.23) rotate(-54.71)" style="fill:#fff;stroke:#263238;stroke-miterlimit:10"></ellipse><path d="M99.56,398.92l11.66,3.25,2.54-2.44A98.45,98.45,0,0,1,99.9,387.81c-16.08-16.43-30.32-40.06-40.63-67.23q-1.68-4.41-3.21-9C45.61,280.7,38.46,244.34,41.58,219c3-24.24,15.23-34.73,28.81-39.33a26.43,26.43,0,0,1,8.48-1.36c11.83,0,24.62,1.94,38.3,15.91,17.82,18.21,30.64,40,41.08,70.88,7.86,23.26,13.85,49.64,15.12,73.51l5,2.7c-.16-7.81-2.28-35.05-2.28-35.05l2-1.55a255.24,255.24,0,0,0-8.5-31.57c-10.84-32.08-27.09-60.25-45.76-79.32C104.4,174,84,172,67.3,177.64s-27.39,18.22-30.79,45.79c-3.27,26.5.9,58.76,11.73,90.84S75.33,374.51,94,393.59C95.85,395.47,97.71,397.25,99.56,398.92Z" style="fill:#fff;stroke:#263238;stroke-miterlimit:10"></path><path d="M163.27,281.39c5.31,18.85,9.12,38.8,10.1,57.26l5,2.7c-.16-7.81-2.28-35.05-2.28-35.05l2-1.55c-2.09-10.41-2-14-5.52-24.53l-4-.88Z" style="fill:#666;stroke:#263238;stroke-linejoin:round"></path><path d="M176.07,306.3s-6.83,1.42-6.25,1.42-6.55-26.33-6.55-26.33l5.25-2.05,4,.88,5.52,24.53Z" style="fill:#263238;stroke:#263238;stroke-miterlimit:10"></path><path d="M113.76,399.73A98.45,98.45,0,0,1,99.9,387.81C86.37,374,74.16,355.06,64.48,333.24l-7.31,3.88c10,22.51,22.75,42.08,36.83,56.47,1.85,1.88,3.71,3.66,5.56,5.33l9.63,2.69,3.38-.73Z" style="fill:#666;stroke:#263238;stroke-linejoin:round"></path><path d="M124.37,417.06c-3.37,4.76-11.57,4.75-18.33,0s-9.49-12.51-6.12-17.28,11.58-4.75,18.33,0S127.74,412.29,124.37,417.06Z" style="fill:#fff;stroke:#263238;stroke-miterlimit:10"></path><polygon points="51.1 322.6 50.92 329.61 59.86 348.01 62.66 349.06 69.85 345.21 59.27 320.58 51.1 322.6" style="fill:#263238;stroke:#263238;stroke-miterlimit:10"></polygon></g><g id="freepik--Floor--inject-98"><line x1="483.26" y1="431.57" x2="31.63" y2="431.57" style="fill:none;stroke:#263238;stroke-linecap:round;stroke-linejoin:round"></line></g><g id="freepik--Character--inject-98"><path d="M381.52,266.41c.34-.62,8.56-3.29,8.6-3.68a6.14,6.14,0,0,0-.45-1.63,6.41,6.41,0,0,1-3.1-.51c-1.36-.7-2.28-2.78-1.15-2.38s4,.36,5.57.68,3.08,3.8,3.08,3.8l3.66,6.62a53.42,53.42,0,0,0,6,7.58,43.81,43.81,0,0,0,6.8,5.69s.4-1.13-.21-4.76-2.65-19.12-1.1-24.32a6.63,6.63,0,0,1,6.4-5,8.68,8.68,0,0,1,3.5,1.48s-3.47,12.2-4.25,20.78,2.26,23.41-1.71,23.58-6.1-2.72-10.93-9.49c-4.58-6.42-8.19-12.57-8.19-12.57a6.07,6.07,0,0,1-3.23,1.71c-1.86.17-.48-2.55-.88-2.47s-1.68,3-2.42,2.59,0-3-1-1.3-2.09.92-2.22-.14,1.43-4.17-.37-4.52S381.19,267,381.52,266.41Z" style="fill:#fff;stroke:#263238;stroke-linecap:round;stroke-linejoin:round"></path><path d="M425.85,205.44c0-1-2-2.13-1.8-3.09s2.36-1.46,2.66-2.38-1.19-2.63-.75-3.5,2.7-.65,3.27-1.44-.33-2.86.37-3.55,2.76.21,3.55-.36.57-2.83,1.44-3.28,2.56,1.06,3.5.76,1.4-2.51,2.38-2.67,2.09,1.81,3.09,1.81,2.13-2,3.09-1.81,1.46,2.37,2.38,2.67,2.63-1.2,3.5-.76.65,2.7,1.44,3.28,2.86-.33,3.55.36-.21,2.76.37,3.55,2.82.57,3.27,1.44-1.06,2.56-.75,3.5,2.5,1.4,2.66,2.38-1.8,2.1-1.8,3.09,2,2.14,1.8,3.09-2.37,1.46-2.66,2.39,1.19,2.62.75,3.49-2.7.65-3.27,1.44.33,2.86-.37,3.56-2.76-.22-3.55.36-.57,2.82-1.44,3.27S450,222,449,222.29s-1.4,2.51-2.38,2.66-2.09-1.8-3.09-1.8-2.13,1.95-3.09,1.8-1.46-2.36-2.38-2.66-2.63,1.19-3.5.75-.65-2.7-1.44-3.27-2.86.33-3.55-.36.21-2.77-.37-3.56-2.82-.56-3.27-1.44,1.06-2.55.75-3.49-2.5-1.41-2.66-2.39S425.85,206.44,425.85,205.44Z" style="fill:#263238"></path><path d="M436.14,240.1s-2.21,4.37-2.22,6.61-1.35,3.2,5.14,2.81,12.59.23,12.08,7.66S431.86,288,433,291.89s9.59,18.26,10.19,24.12-7.93,16.51-16.58,15.19-17.63-5.34-17.59-12,.63-35.15,0-36.41-1.54-9-1.62-9.37-.39-.05-.16-2,4.3-9.33,5.58-13.38,2.88-9.51,2.88-9.51,6.31,1,7.6.14,3.54-9.55,3.54-9.55S433.6,240.44,436.14,240.1Z" style="fill:#fff;stroke:#263238;stroke-linecap:round;stroke-linejoin:round"></path><polygon points="409.26 265.84 414.27 272.22 411.3 279.62 419.55 277.24 426.36 282.06 426.45 274.2 433.63 269.78 425.44 267.3 423.06 259.75 417.9 266.08 409.26 265.84" style="fill:#263238"></polygon><path d="M424.32,256.76c-1.39-.78-2.19-4.32-2.64-7.77.7,0,1.24-1,1.54-1.17,1.29-.89,3.58-8.73,3.58-8.73s6.8,1.35,9.34,1c0,0-2.21,4.37-2.22,6.61,0,1.52-.62,2.45,1,2.77C431.3,253.12,426.12,257.76,424.32,256.76Z" style="fill:#fff;stroke:#263238;stroke-linecap:round;stroke-linejoin:round"></path><path d="M423.58,246.57s-14.47,20.77-14.47,27.58c0,8,.39,27.15.39,27.15l-10.21-2.85,8.35-36.75s.33-11,3.67-13.36S423.58,246.57,423.58,246.57Z" style="fill:#92E3A9;stroke:#263238;stroke-miterlimit:10"></path><path d="M424.06,246l-10.5,16.79-3.95,7.68s.55-11.78,3.07-16C418.17,245.19,424.06,246,424.06,246Z" style="fill:#92E3A9;stroke:#263238;stroke-miterlimit:10"></path><path d="M446,211.09a13.17,13.17,0,0,1,4.06,8.6c.58,5.75-5.25,12.71-8.42,16.59s-8.8,8-14,5.53-3.91-12.28-2.58-18.37,3.08-12.41,9.62-14.74S446,211.09,446,211.09Z" style="fill:#fff;stroke:#263238;stroke-linecap:round;stroke-linejoin:round"></path><path d="M430.86,225.24s1.68,2.35,1,3.36-3.2,4.38-3.2,4.38a3.88,3.88,0,0,0,2.52,1.17" style="fill:none;stroke:#263238;stroke-linecap:round;stroke-linejoin:round"></path><path d="M428,236.17s3.36,2.36,6.05,0" style="fill:none;stroke:#263238;stroke-linecap:round;stroke-linejoin:round"></path><path d="M439.43,229.61s-2.69.68-4-1.51" style="fill:none;stroke:#263238;stroke-linecap:round;stroke-linejoin:round"></path><path d="M430.18,227.26s-3,0-3.7-1.68" style="fill:none;stroke:#263238;stroke-linecap:round;stroke-linejoin:round"></path><path d="M441.28,227.09a5.36,5.36,0,0,0-3.86-2.35" style="fill:none;stroke:#263238;stroke-linecap:round;stroke-linejoin:round"></path><path d="M430.18,223.39a4,4,0,0,0-3.7,0" style="fill:none;stroke:#263238;stroke-linecap:round;stroke-linejoin:round"></path><path d="M425.85,219.18c1.32-4.91,3.45-8.57,8.82-10.48,6.53-2.32,11.36,2.39,11.36,2.39a13.17,13.17,0,0,1,4.06,8.6c.32,3.18-1.32,6.74-3.39,9.93-1.22-1.79-3-5.67-.58-11.13C446.12,218.49,435.16,226,425.85,219.18Z" style="fill:#263238;stroke:#263238;stroke-linecap:round;stroke-linejoin:round"></path><path d="M409,319.16a134.77,134.77,0,0,0-4.53,25.9c-.8,13.13,4.32,34.24,5.53,39s11.5,34.24,11.77,35.74a14.55,14.55,0,0,1,.28,3.31s-3.68,5.4-5.36,7.65-4.37,3.58-3.95,4.6,3.13.67,4.93.17,3.12-2.62,5.89-3.17,6.8-.53,6.65-3.43-3.94-7.87-4.4-14.29c-.45-6.26-2.09-29.88-2.86-36.33s-6.09-15.89-6-16.45,11.49-26.9,14-33.45" style="fill:#fff;stroke:#263238;stroke-linecap:round;stroke-linejoin:round"></path><path d="M416.67,430.79c1.68-2.25,5.36-7.65,5.36-7.65v0a1.78,1.78,0,0,1,1.57.86,18.69,18.69,0,0,0,.9,1.73,13.05,13.05,0,0,0,4.23-1.14,14.67,14.67,0,0,1,1.46,4.39c.15,2.9-3.88,2.88-6.65,3.43s-4.08,2.67-5.89,3.17-4.51.85-4.93-.17S415,433,416.67,430.79Z" style="fill:#92E3A9;stroke:#263238;stroke-linecap:round;stroke-linejoin:round"></path><path d="M421,322.17c-6.12,9.39-11.41,42.12-11.35,46.33s7.07,11,12.31,16.63,23.92,26.65,25.36,30.46,4.29,17.53,6.8,20.51,4.75-.72,4-5.79-3.56-10-6.3-15.69-10.72-23.51-14.58-31.06-12-15.46-10.59-19.3,7.44-14.39,10.93-21,8.4-15.43,7.27-23.41-6.31-15.7-6.31-15.7" style="fill:#fff;stroke:#263238;stroke-linecap:round;stroke-linejoin:round"></path><path d="M452.79,423.57c1.48-.43,1.49-2.69,1.2-4.61,1.95,4,3.63,7.62,4.16,11.35.72,5.07-1.53,8.78-4,5.79-1.65-2-3.44-8.54-4.88-13.91C450.53,423.17,451.84,423.84,452.79,423.57Z" style="fill:#92E3A9;stroke:#263238;stroke-linecap:round;stroke-linejoin:round"></path><path d="M454.74,292.77s3.34-9,3.68-13.7-7-3.34-6.68.67S454.74,292.77,454.74,292.77Z" style="fill:#fff;stroke:#263238;stroke-linecap:round;stroke-linejoin:round"></path><path d="M443.64,250.19s4.95-1.21,7.82,2.17,0,11.57.11,15.26.1,7.76.1,7.76,7.38-10.92,9.38-16.46,2.42-5.88,1.87-8.84-.9-7.74-.16-9.49,2.42-3.64,2.25-5.5,1.42-1.93,2-.29a3.38,3.38,0,0,1-.08,2.76s4.36.92,5.19,1.68.71,1.67.88,2.48.87,5.75.55,6.24-5,5.56-5.55,6.68-6.11,16.61-7.94,21.9-9.07,14-11.95,13.92-5.82-27.66-5.82-27.66" style="fill:#fff;stroke:#263238;stroke-linecap:round;stroke-linejoin:round"></path><path d="M436.91,296.74s-15,3.62-26.91-.87l-19.7,55.9s9.63,12.51,35.3,10.59,32.1-9,32.1-9S448.76,305.15,436.91,296.74Z" style="fill:#263238"></path><path d="M451.67,275.38s2.74-11.67,3.07-17.35-3-8.69-8.35-10a60.29,60.29,0,0,0-12.47-1.3s-3.23,20.34-4.9,28.69-1.67,28.4-1.67,28.4l18.37-2.34-1-15s-.22,5.07,3.4,4S451.67,275.38,451.67,275.38Z" style="fill:#92E3A9;stroke:#263238;stroke-miterlimit:10"></path><path d="M436,249.26a9.49,9.49,0,0,1,1.67,8.65c-1.54,5-8.68,17.49-8.68,17.49l4.9-28.69Z" style="fill:#92E3A9;stroke:#263238;stroke-miterlimit:10"></path><path d="M472,243.69s-4,1.62-5,2.15-.51,2-.09,2.88a2,2,0,0,0,2.72.34,2,2,0,0,0,.19-1.56" style="fill:none;stroke:#263238;stroke-linecap:round;stroke-linejoin:round"></path><path d="M472.23,241.62s-5.77,1-6.73,1.28-.54,2.3-.35,2.85.51,2.3,1.06,2.1" style="fill:none;stroke:#263238;stroke-linecap:round;stroke-linejoin:round"></path><path d="M471.3,239.54s-6.27.8-6.66.76-1,1.37-.77,2l1.28,3.44" style="fill:none;stroke:#263238;stroke-linecap:round;stroke-linejoin:round"></path><path d="M466.94,237.56s-2.31-.42-2.42.49a9.81,9.81,0,0,0,.12,2.25" style="fill:none;stroke:#263238;stroke-linecap:round;stroke-linejoin:round"></path><line x1="470.94" y1="247.42" x2="469.9" y2="247.14" style="fill:none;stroke:#263238;stroke-linecap:round;stroke-linejoin:round"></line><path d="M449.69,229.09a.77.77,0,0,0,.71-.48c.06-.16,6.16-16.05-6-21.23s-17.55,3.87-20.68,11.07a.76.76,0,0,0,.39,1,.75.75,0,0,0,1-.4c4.69-10.79,10.28-13.86,18.69-10.27,10.77,4.59,5.39,18.67,5.15,19.27a.77.77,0,0,0,.43,1A.92.92,0,0,0,449.69,229.09Z" style="fill:#fff;stroke:#263238;stroke-linecap:round;stroke-linejoin:round"></path><path d="M446.22,234.91a15.29,15.29,0,0,1-4.77,5.72c-3.38,2.44-11.09,7-13,8.64s-7.32,9-9.2,18.6-1.5,23.86-2.63,28.74-5.45,16.16-23.3,8.64-16.53-31.94-15.78-36.07.95-6.25,4.23-6.13" style="fill:none;stroke:#263238;stroke-linecap:round;stroke-linejoin:round"></path><path d="M422.22,225.84a38.86,38.86,0,0,0-2,11.41c-.38,7.32,4.32,16,4.32,16" style="fill:none;stroke:#263238;stroke-linecap:round;stroke-linejoin:round"></path><path d="M422.22,225.84h0a2.07,2.07,0,0,0,2.61-1.36l1-3.11a2.09,2.09,0,0,0-1.36-2.62h0a2.09,2.09,0,0,0-2.62,1.37l-1,3.11A2.08,2.08,0,0,0,422.22,225.84Z" style="fill:#fff;stroke:#263238;stroke-linecap:round;stroke-linejoin:round"></path><path d="M446.22,234.91h0A2.08,2.08,0,0,0,449,234l1.52-2.89a2.08,2.08,0,0,0-.87-2.82h0a2.08,2.08,0,0,0-2.82.87l-1.52,2.89A2.08,2.08,0,0,0,446.22,234.91Z" style="fill:#fff;stroke:#263238;stroke-linecap:round;stroke-linejoin:round"></path><rect x="395.45" y="261.56" width="2.45" height="1.27" transform="translate(758.95 570.16) rotate(-173.1)" style="fill:#92E3A9;stroke:#263238;stroke-linecap:round;stroke-linejoin:round;stroke-width:0.5px"></rect><rect x="393.15" y="261.28" width="2.45" height="1.27" transform="translate(754.42 569.33) rotate(-173.1)" style="fill:#92E3A9;stroke:#263238;stroke-linecap:round;stroke-linejoin:round;stroke-width:0.5px"></rect><rect x="390.86" y="261" width="2.45" height="1.27" transform="translate(749.89 568.49) rotate(-173.1)" style="fill:#92E3A9;stroke:#263238;stroke-linecap:round;stroke-linejoin:round;stroke-width:0.5px"></rect><rect x="381.37" y="261.84" width="17.35" height="10.57" rx="2.24" transform="translate(744.78 579.63) rotate(-173.03)" style="fill:#92E3A9;stroke:#263238;stroke-linecap:round;stroke-linejoin:round"></rect><rect x="387.82" y="264.76" width="6.89" height="3.14" transform="translate(750.46 574.55) rotate(-173.61)" style="fill:#fff;stroke:#263238;stroke-linecap:round;stroke-linejoin:round;stroke-width:0.75px"></rect><path d="M393.13,266.54a1.56,1.56,0,1,0,1.73-1.38A1.57,1.57,0,0,0,393.13,266.54Z" style="fill:#fff;stroke:#263238;stroke-linecap:round;stroke-linejoin:round;stroke-width:0.75px"></path><path d="M392.16,270.37s.67,3.92.21,4.56-1.28,1-1.88-.34-.22-3.4-.23-4.34S391.18,269,392.16,270.37Z" style="fill:#fff;stroke:#263238;stroke-linecap:round;stroke-linejoin:round"></path><path d="M383.47,266.74s-3.33,2.17-4.11,2-1.43-.77-.42-1.86,3-1.55,3.89-1.93S384.37,265.29,383.47,266.74Z" style="fill:#fff;stroke:#263238;stroke-linecap:round;stroke-linejoin:round"></path><path d="M388.61,269.77s.64,4.42.16,5.15-1.33,1.15-1.93-.37-.19-3.83-.19-4.88S387.61,268.21,388.61,269.77Z" style="fill:#fff;stroke:#263238;stroke-linecap:round;stroke-linejoin:round"></path><path d="M385.12,269.22s.65,4.41.16,5.14-1.32,1.15-1.92-.36-.19-3.84-.19-4.89S384.13,267.65,385.12,269.22Z" style="fill:#fff;stroke:#263238;stroke-linecap:round;stroke-linejoin:round"></path><path d="M453.07,273.06l1.67,19.71-5.34,1.67s-2-17-1-19.71S453.07,273.06,453.07,273.06Z" style="fill:#fff;stroke:#263238;stroke-linecap:round;stroke-linejoin:round"></path><line x1="444.72" y1="286.42" x2="443.84" y2="267.35" style="fill:none;stroke:#263238;stroke-linecap:round;stroke-linejoin:round"></line></g></svg>