<svg xmlns="http://www.w3.org/2000/svg" viewBox="0 0 500 500"><g id="freepik--background-complete--inject-9"><rect x="32.9" y="124.92" width="154.36" height="89.84" rx="5.89" transform="translate(47 -22.47) rotate(14.79)" style="fill:#e0e0e0"></rect><path d="M167.58,208.66,40.92,175.23a4.45,4.45,0,0,1-3.17-5.44L51,119.46a4.44,4.44,0,0,1,5.44-3.17l126.66,33.44a4.45,4.45,0,0,1,3.16,5.44L173,205.49A4.45,4.45,0,0,1,167.58,208.66Z" style="fill:#fafafa"></path><path d="M34.62,189.92a2.92,2.92,0,1,1-2.08-3.57A2.93,2.93,0,0,1,34.62,189.92Z" style="fill:#ebebeb"></path><rect x="41.31" y="159.39" width="139.73" height="12.67" transform="translate(45.98 -22.89) rotate(14.79)" style="fill:#ebebeb"></rect><rect x="66.32" y="152.71" width="88.51" height="30.51" rx="3.52" transform="translate(46.53 -22.66) rotate(14.79)" style="fill:#e0e0e0"></rect><rect x="94.48" y="161" width="31.93" height="14.92" transform="translate(46.66 -22.61) rotate(14.79)" style="fill:#fafafa"></rect><path d="M124.34,180.36,92.5,172l4.06-15.39L128.4,165Zm-30.62-9.12,29.91,7.89,3.55-13.45-29.91-7.9Z" style="fill:#e0e0e0"></path><path d="M146.75,226s0-.11-.08-.34-.12-.6-.2-1c-.17-.93-.42-2.25-.72-3.94-.61-3.46-1.48-8.41-2.55-14.51l.14.15-40.51-10.62-41-10.89.2-.08-8.41,11.63-2.31,3.14-.61.81c-.15.19-.22.28-.23.27a1.15,1.15,0,0,1,.18-.3l.57-.84,2.23-3.2,8.27-11.73.08-.1.13,0,41,10.76,40.48,10.75.12,0,0,.12L146,220.63c.26,1.7.47,3,.62,4,.06.43.11.77.14,1A1.54,1.54,0,0,1,146.75,226Z" style="fill:#f5f5f5"></path><path d="M104.53,202.33a2.92,2.92,0,1,1-2.08-3.57A2.92,2.92,0,0,1,104.53,202.33Z" style="fill:#ebebeb"></path><path d="M169.86,225.62a2.92,2.92,0,1,1-2.08-3.57A2.92,2.92,0,0,1,169.86,225.62Z" style="fill:#ebebeb"></path><path d="M191.35,150.58a2.92,2.92,0,1,1-2.08-3.57A2.92,2.92,0,0,1,191.35,150.58Z" style="fill:#ebebeb"></path><path d="M51.84,113.75a2.92,2.92,0,1,1-2.08-3.57A2.92,2.92,0,0,1,51.84,113.75Z" style="fill:#ebebeb"></path><path d="M137.28,194.69c0,.14-14.2-3.48-31.62-8.08S74.13,178.17,74.17,178s14.19,3.48,31.62,8.08S137.31,194.55,137.28,194.69Z" style="fill:#e0e0e0"></path><path d="M164.79,162.15c0,.14-22.12-5.57-49.31-12.75S66.27,136.29,66.3,136.15s22.11,5.57,49.32,12.75S164.83,162,164.79,162.15Z" style="fill:#e0e0e0"></path><path d="M159.53,154c0,.14-19-4.75-42.37-10.92s-42.29-11.28-42.25-11.42,19,4.75,42.38,10.92S159.57,153.84,159.53,154Z" style="fill:#e0e0e0"></path><path d="M123,171.32a11.58,11.58,0,1,1,8.41,14A11.58,11.58,0,0,1,123,171.32Z" style="fill:#ebebeb"></path><path d="M135.9,179.56a5.39,5.39,0,0,1-1.48.24l-.61,1.26-2.24-.53v-1.39a5.44,5.44,0,0,1-1.22-.87l-1.32.46-1.21-2,1-1a5.33,5.33,0,0,1-.24-1.48l-1.25-.6.52-2.25h1.39a5.44,5.44,0,0,1,.87-1.22l-.45-1.31,1.95-1.22,1,1a5.73,5.73,0,0,1,1.48-.25l.61-1.25,2.24.52v1.39a5.82,5.82,0,0,1,1.22.88l1.32-.46,1.21,2-1,1a5.88,5.88,0,0,1,.25,1.48l1.25.61-.52,2.24h-1.39a6,6,0,0,1-.87,1.22l.45,1.31-2,1.22-1-1Z" style="fill:#fafafa"></path><path d="M76.26,159.58a11.58,11.58,0,1,1,8.41,14A11.59,11.59,0,0,1,76.26,159.58Z" style="fill:#ebebeb"></path><path d="M89.15,167.82a5.73,5.73,0,0,1-1.48.25l-.61,1.25-2.24-.52v-1.39a5.77,5.77,0,0,1-1.22-.87L82.3,167l-1.22-2,1-1a5.88,5.88,0,0,1-.25-1.48L80.57,162l.52-2.24h1.39a5.82,5.82,0,0,1,.88-1.22l-.46-1.32L84.85,156l1,1a5.86,5.86,0,0,1,1.48-.24l.61-1.25,2.24.52v1.39a5.44,5.44,0,0,1,1.22.87l1.32-.45,1.22,1.95-1,1a5.33,5.33,0,0,1,.24,1.48l1.25.61-.52,2.24H92.5a5.44,5.44,0,0,1-.87,1.22l.45,1.32-2,1.21-1-1Z" style="fill:#fff"></path><rect x="337.11" y="339.2" width="128.79" height="74.96" rx="5.89" transform="translate(896.63 617.39) rotate(162.75)" style="fill:#e0e0e0"></rect><rect x="345.02" y="357.32" width="116.72" height="50.86" rx="4.45" transform="translate(902.11 628.7) rotate(162.75)" style="fill:#fafafa"></rect><path d="M446,329.08a2.44,2.44,0,1,1,3.05,1.61A2.44,2.44,0,0,1,446,329.08Z" style="fill:#ebebeb"></path><rect x="344.27" y="374.79" width="116.58" height="10.57" transform="translate(899.69 623.71) rotate(162.75)" style="fill:#ebebeb"></rect><rect x="365.06" y="365.5" width="73.85" height="25.46" rx="3.52" transform="translate(898.03 620.27) rotate(162.75)" style="fill:#e0e0e0"></rect><rect x="388.53" y="371.6" width="26.64" height="12.44" transform="translate(897.66 619.51) rotate(162.75)" style="fill:#fafafa"></rect><path d="M390.65,388.34l-4-12.84,26.4-8.2,4,12.84Zm-2.74-12.18,3.4,10.93,24.49-7.61-3.4-10.92Z" style="fill:#e0e0e0"></path><path d="M350.72,353.2s.08.06.22.2.35.38.6.64l2.26,2.46,8.23,9.13-.2-.06,33.35-10.42L429,344.72l-.14.17c.35-5,.63-9.08.82-11.94.11-1.38.19-2.47.25-3.25,0-.34.06-.62.08-.84a1,1,0,0,1,.05-.29,1.29,1.29,0,0,1,0,.29c0,.22,0,.5,0,.85,0,.78-.08,1.87-.15,3.25-.15,2.87-.37,6.94-.65,12v.13l-.12,0-33.78,10.55-33.39,10.3-.12,0-.08-.09-8.1-9.24-2.19-2.53-.55-.67Q350.71,353.22,350.72,353.2Z" style="fill:#f5f5f5"></path><path d="M391.05,351.24a2.44,2.44,0,1,1,3.05,1.61A2.44,2.44,0,0,1,391.05,351.24Z" style="fill:#ebebeb"></path><path d="M334.54,363.68a2.43,2.43,0,1,1,3,1.61A2.44,2.44,0,0,1,334.54,363.68Z" style="fill:#ebebeb"></path><path d="M352.54,426.27a2.44,2.44,0,1,1,3,1.6A2.43,2.43,0,0,1,352.54,426.27Z" style="fill:#ebebeb"></path><path d="M467.52,390.58a2.44,2.44,0,1,1,3.05,1.6A2.43,2.43,0,0,1,467.52,390.58Z" style="fill:#ebebeb"></path><path d="M371.27,371.14c0-.14,11.57-3.86,25.93-8.32s26-8,26.08-7.83-11.56,3.87-25.93,8.33S371.31,371.28,371.27,371.14Z" style="fill:#e0e0e0"></path><path d="M366.21,406.33c0-.14,18.1-5.89,40.51-12.84s40.61-12.49,40.66-12.35S429.29,387,406.87,394,366.26,406.47,366.21,406.33Z" style="fill:#e0e0e0"></path><path d="M373.55,409.78c0-.13,15.53-5.09,34.79-11.07s34.9-10.71,35-10.58-15.54,5.1-34.8,11.08S373.59,409.92,373.55,409.78Z" style="fill:#e0e0e0"></path><circle cx="382.52" cy="384.34" r="9.66" transform="translate(-80.42 666.68) rotate(-76.51)" style="fill:#ebebeb"></circle><path d="M378.94,381.23a5.28,5.28,0,0,1,.94-.83l-.12-1.15,1.81-.62.61,1a4.76,4.76,0,0,1,1.25.08l.73-.9,1.73.84-.27,1.13a4.63,4.63,0,0,1,.83.94l1.15-.13.63,1.82-1,.61a4.81,4.81,0,0,1-.08,1.25l.91.73-.85,1.72-1.13-.26a4.63,4.63,0,0,1-.94.83l.13,1.15-1.82.62-.61-1a4.81,4.81,0,0,1-1.25-.08l-.73.9-1.72-.84.27-1.13a4.63,4.63,0,0,1-.83-.94l-1.16.13-.62-1.82,1-.61a4.8,4.8,0,0,1,.07-1.25l-.9-.73.84-1.72,1.13.26Z" style="fill:#fafafa"></path><circle cx="420.77" cy="371.95" r="9.66" transform="translate(-87.61 133.32) rotate(-16.33)" style="fill:#ebebeb"></circle><path d="M417.2,368.85a4.34,4.34,0,0,1,.94-.83l-.13-1.16,1.82-.62.61,1a4.8,4.8,0,0,1,1.25.07l.73-.9,1.72.84-.26,1.13a4.86,4.86,0,0,1,.82.94l1.16-.12.62,1.81-1,.61a5.23,5.23,0,0,1-.08,1.25l.9.73-.84,1.73-1.13-.27a4.91,4.91,0,0,1-.94.83l.13,1.15-1.82.63-.61-1a4.81,4.81,0,0,1-1.25-.08l-.73.91-1.72-.85.26-1.13a4.63,4.63,0,0,1-.83-.94l-1.15.13-.62-1.82,1-.61a4.81,4.81,0,0,1,.08-1.25l-.9-.73.84-1.72,1.13.27Z" style="fill:#fff"></path><path d="M410.77,273.24l1.18,2a13.39,13.39,0,0,0,5.54,5.11l2.05,1-2,1.18a13.45,13.45,0,0,0-5.11,5.54l-1,2-1.18-2a13.36,13.36,0,0,0-5.54-5.1l-2.05-1,2-1.17a13.45,13.45,0,0,0,5.1-5.55Z" style="fill:#e0e0e0"></path><path d="M139.09,439.49l1.18,1.95a13.41,13.41,0,0,0,5.55,5.11l2,1-2,1.18a13.41,13.41,0,0,0-5.11,5.55l-1,2-1.18-2a13.41,13.41,0,0,0-5.55-5.11l-2.05-1,2-1.18a13.41,13.41,0,0,0,5.11-5.55Z" style="fill:#e0e0e0"></path><path d="M390.59,71.7l1.18,2a13.41,13.41,0,0,0,5.55,5.11l2.05,1-2,1.18a13.41,13.41,0,0,0-5.11,5.55l-1,2-1.18-2a13.41,13.41,0,0,0-5.55-5.11l-2-1,2-1.18a13.41,13.41,0,0,0,5.11-5.55Z" style="fill:#e0e0e0"></path><path d="M178.12,43.23l1.18,2a13.39,13.39,0,0,0,5.54,5.11l2,1-2,1.18a13.39,13.39,0,0,0-5.1,5.55l-1,2-1.17-2A13.47,13.47,0,0,0,172.09,53L170,52l2-1.18a13.41,13.41,0,0,0,5.11-5.55Z" style="fill:#e0e0e0"></path><path d="M55.89,281.67l1.18,1.95a13.35,13.35,0,0,0,5.55,5.11l2,1-1.95,1.18a13.47,13.47,0,0,0-5.11,5.55l-1,2-1.18-2a13.41,13.41,0,0,0-5.55-5.11l-2-1,2-1.18a13.45,13.45,0,0,0,5.11-5.54Z" style="fill:#e0e0e0"></path><path d="M376.64,317.51l.58,1A6.68,6.68,0,0,0,380,321l1,.5-1,.59a6.68,6.68,0,0,0-2.55,2.77l-.51,1-.59-1a6.69,6.69,0,0,0-2.76-2.54l-1-.51,1-.59a6.72,6.72,0,0,0,2.55-2.76Z" style="fill:#e0e0e0"></path><path d="M455.79,249.07l.59,1a6.72,6.72,0,0,0,2.76,2.55l1,.51-1,.58a6.68,6.68,0,0,0-2.55,2.77l-.51,1-.58-1a6.68,6.68,0,0,0-2.77-2.55l-1-.51,1-.59a6.66,6.66,0,0,0,2.55-2.76Z" style="fill:#e0e0e0"></path><path d="M362.32,208l.59,1a6.68,6.68,0,0,0,2.77,2.55l1,.51-1,.58a6.81,6.81,0,0,0-2.55,2.77l-.5,1-.59-1a6.68,6.68,0,0,0-2.77-2.55l-1-.51,1-.58a6.75,6.75,0,0,0,2.55-2.77Z" style="fill:#e0e0e0"></path><path d="M425.13,125.09l.59,1a6.68,6.68,0,0,0,2.77,2.55l1,.5-1,.59a6.66,6.66,0,0,0-2.54,2.77l-.51,1-.59-1a6.65,6.65,0,0,0-2.76-2.55l-1-.51,1-.59a6.72,6.72,0,0,0,2.55-2.76Z" style="fill:#e0e0e0"></path><path d="M120,421.05l.59,1a6.69,6.69,0,0,0,2.76,2.54l1,.51-1,.59a6.68,6.68,0,0,0-2.55,2.77l-.51,1-.58-1a6.68,6.68,0,0,0-2.77-2.55l-1-.5,1-.59a6.62,6.62,0,0,0,2.55-2.77Z" style="fill:#e0e0e0"></path><path d="M406.36,428.87l.59,1a6.72,6.72,0,0,0,2.76,2.55l1,.5-1,.59a6.68,6.68,0,0,0-2.55,2.77l-.5,1-.59-1a6.62,6.62,0,0,0-2.77-2.55l-1-.51,1-.59a6.65,6.65,0,0,0,2.55-2.76Z" style="fill:#e0e0e0"></path><path d="M82,240.66l.59,1a6.65,6.65,0,0,0,2.76,2.55l1,.51-1,.59A6.72,6.72,0,0,0,82.87,248l-.51,1-.58-1A6.68,6.68,0,0,0,79,245.54L78,245l1-.58a6.68,6.68,0,0,0,2.55-2.77Z" style="fill:#e0e0e0"></path><path d="M203.8,35.1l.59,1a6.72,6.72,0,0,0,2.76,2.55l1,.51-1,.58a6.74,6.74,0,0,0-2.55,2.77l-.5,1-.59-1A6.68,6.68,0,0,0,200.79,40l-1-.51,1-.58a6.66,6.66,0,0,0,2.54-2.77Z" style="fill:#e0e0e0"></path><path d="M57.22,361.19l.59,1a6.68,6.68,0,0,0,2.77,2.55l1,.5-1,.59a6.68,6.68,0,0,0-2.55,2.77l-.5,1-.59-1a6.66,6.66,0,0,0-2.77-2.54l-1-.51,1-.59a6.69,6.69,0,0,0,2.54-2.76Z" style="fill:#e0e0e0"></path></g><g id="freepik--Table--inject-9"><path d="M464.26,475.13c0,.15-95.93.26-214.25.26s-214.27-.11-214.27-.26,95.91-.26,214.27-.26S464.26,475,464.26,475.13Z" style="fill:#263238"></path></g><g id="freepik--musical-notes--inject-9"><path d="M96.73,87.55a4.23,4.23,0,1,1-4-4.45A4.24,4.24,0,0,1,96.73,87.55Z" style="fill:#263238"></path><path d="M96.19,86.11c-.21.15-2.78-3.5-5.06-8.45s-4-8.92-3.85-9,2.44,3.72,4.69,8.64S96.4,86,96.19,86.11Z" style="fill:#263238"></path><path d="M95.31,64.38c.23.09-.79,2.24-3.24,3.63s-4.82,1.21-4.78,1,2.11-.49,4.31-1.77S95.08,64.22,95.31,64.38Z" style="fill:#263238"></path><path d="M96.93,68.45c.25.07-.68,2.26-3.17,3.45s-4.77.57-4.67.34,2.09-.1,4.27-1.18S96.7,68.31,96.93,68.45Z" style="fill:#263238"></path><path d="M406.73,221a4.23,4.23,0,1,1-4-4.45A4.21,4.21,0,0,1,406.73,221Z" style="fill:#263238"></path><path d="M406.2,219.57c-.22.14-2.78-3.5-5.06-8.45s-4.05-8.93-3.85-9,2.44,3.71,4.69,8.64S406.41,219.43,406.2,219.57Z" style="fill:#263238"></path><path d="M405.32,197.83c.23.09-.79,2.25-3.24,3.64s-4.82,1.2-4.78,1,2.11-.48,4.31-1.77S405.09,197.68,405.32,197.83Z" style="fill:#263238"></path><path d="M406.94,201.91c.24.06-.68,2.26-3.17,3.44s-4.77.58-4.67.35,2.09-.1,4.26-1.19S406.71,201.76,406.94,201.91Z" style="fill:#263238"></path><path d="M132.35,96a6.16,6.16,0,1,1,.16-8.71A6.17,6.17,0,0,1,132.35,96Z" style="fill:#263238"></path><path d="M133.21,93.88c-.59-.09.14-6.59,2.63-14.15s4.71-13.48,5.25-13.35-.73,6.51-3.21,14S133.79,94,133.21,93.88Z" style="fill:#263238"></path><path d="M158.54,76.08c.06.5-5,1.26-10.73-1.27a14.43,14.43,0,0,1-6.14-4.88c-1.17-1.73-1.18-3.12-.92-3.16s.81,1,2.1,2.21a19.73,19.73,0,0,0,5.85,3.88C153.8,75.16,158.57,75.41,158.54,76.08Z" style="fill:#263238"></path><path d="M149.8,105.66a6.17,6.17,0,1,1,.16-8.72A6.17,6.17,0,0,1,149.8,105.66Z" style="fill:#263238"></path><path d="M150.65,103.59c-.58-.09.15-6.59,2.64-14.16S158,76,158.54,76.08s-.73,6.52-3.21,14S151.24,103.68,150.65,103.59Z" style="fill:#263238"></path><path d="M157.41,80.14c.14.54-4.68,1.59-10.1-.6s-8.22-6.22-7.75-6.52,3.64,2.63,8.54,4.53S157.37,79.51,157.41,80.14Z" style="fill:#263238"></path><path d="M367,172.82a4.67,4.67,0,1,1-3.63-5.51A4.66,4.66,0,0,1,367,172.82Z" style="fill:#263238"></path><path d="M366.62,171.16c-.41.2-2.73-4.18-4.4-10s-2.82-10.43-2.43-10.58,2.33,4.38,4,10.12S367,171,366.62,171.16Z" style="fill:#263238"></path><path d="M374.84,149.22c.25.28-2.6,2.94-7.24,3.78a10.9,10.9,0,0,1-5.92-.42c-1.47-.58-2.07-1.44-1.93-1.58s.91.25,2.26.48a14.82,14.82,0,0,0,5.3-.07C371.48,150.67,374.57,148.79,374.84,149.22Z" style="fill:#263238"></path><path d="M382,171.43a4.66,4.66,0,1,1-3.62-5.51A4.66,4.66,0,0,1,382,171.43Z" style="fill:#263238"></path><path d="M381.66,169.77c-.4.2-2.72-4.18-4.4-10s-2.81-10.43-2.42-10.58,2.33,4.38,4,10.12S382.07,169.58,381.66,169.77Z" style="fill:#263238"></path><path d="M375.87,152.24c.31.28-2.25,3-6.57,3.94s-7.79-.38-7.62-.77,3.39.09,7.27-.81S375.57,151.86,375.87,152.24Z" style="fill:#263238"></path><path d="M417.35,174.3a1.76,1.76,0,1,1,.57-2.42A1.76,1.76,0,0,1,417.35,174.3Z" style="fill:#263238"></path><path d="M417.71,173.78c-.16-.06.44-1.83,1.6-3.8a16.77,16.77,0,0,1,2.27-3.41c.16.08-.6,1.78-1.74,3.72A22.69,22.69,0,0,1,417.71,173.78Z" style="fill:#263238"></path><path d="M425.87,170.34a4.91,4.91,0,0,1-4.34-2.74c-.22-.55-.14-.94-.07-.94s.17.32.46.75a5.56,5.56,0,0,0,1.39,1.43C424.6,169.79,425.92,170.15,425.87,170.34Z" style="fill:#263238"></path><path d="M421.64,178.07a1.76,1.76,0,1,1,.57-2.42A1.77,1.77,0,0,1,421.64,178.07Z" style="fill:#263238"></path><path d="M422,177.55c-.16-.06.44-1.84,1.59-3.8a16.56,16.56,0,0,1,2.28-3.41c.16.08-.6,1.78-1.75,3.72A23.79,23.79,0,0,1,422,177.55Z" style="fill:#263238"></path><path d="M425.31,171.4a3.5,3.5,0,0,1-2.79-.77c-1.39-.93-1.92-2.24-1.77-2.29s.86.95,2.11,1.78S425.33,171.23,425.31,171.4Z" style="fill:#263238"></path><path d="M111.52,143.25A3.89,3.89,0,1,1,110,138,3.89,3.89,0,0,1,111.52,143.25Z" style="fill:#263238"></path><path d="M111.64,141.84c-.37.06-1.16-4-1.09-9s.29-9,.63-9,.8,4.06.72,9S112,141.79,111.64,141.84Z" style="fill:#263238"></path><path d="M123.53,126.33c.13.29-2.79,1.71-6.7,1.26a9,9,0,0,1-4.62-1.77c-1-.82-1.3-1.65-1.16-1.73s.67.43,1.69.93a12.16,12.16,0,0,0,4.25,1.23C120.5,126.68,123.42,125.92,123.53,126.33Z" style="fill:#263238"></path><path d="M123.86,145.79a3.89,3.89,0,1,1-1.55-5.27A3.89,3.89,0,0,1,123.86,145.79Z" style="fill:#263238"></path><path d="M124,144.39c-.37.06-1.16-4-1.09-9s.29-9,.64-9,.79,4.06.71,9S124.35,144.33,124,144.39Z" style="fill:#263238"></path><path d="M123.62,129c.18.3-2.52,1.84-6.2,1.55s-6.12-2.19-5.9-2.46,2.69.89,6,1.11S123.47,128.62,123.62,129Z" style="fill:#263238"></path></g><g id="freepik--Character--inject-9"><circle cx="203.13" cy="135.93" r="12.73" transform="translate(-37.54 93.29) rotate(-23.74)" style="fill:#FF725E"></circle><path d="M301.05,32.94a13.49,13.49,0,0,1,11.82-2c1.6.51,3.31,1.32,4.89.73,1.13-.43,1.88-1.48,2.8-2.26a6.83,6.83,0,0,1,9.71,1.49,8.15,8.15,0,0,0,1.56,2.22c2.91,2.26,7.54-3.13,10.43-.84a7.81,7.81,0,0,0-4.08,2.17,3.5,3.5,0,0,0-.38,4.31c2.53,3.18,8.53-1.83,11.47,1,1.59,1.51,1.29,4.62,3.29,5.5a7.26,7.26,0,0,0,2.51.26,5.63,5.63,0,0,1,5,5.81c-.19,2.43-1.92,5.12-.42,7,.93,1.19,2.64,1.33,4.14,1.37a14.51,14.51,0,0,1-2.7,6,8.79,8.79,0,0,1,.81,12.17,19,19,0,0,1,4.07,6c.8,2.3.58,5.14-1.18,6.82a5.89,5.89,0,0,0-1.16,1.18,3.36,3.36,0,0,0-.32,1.75c.06,2.31.65,4.65.17,6.91s-2.62,4.45-4.85,3.85c-.52-.14-1.07-.42-1.57-.21a1.5,1.5,0,0,0-.73.93,15.6,15.6,0,0,0-.55,4.93,6.67,6.67,0,0,1-1.59,4.6c-1.2,1.15-3.51,1.21-4.3-.25l.57,7.94c.11,1.58.09,3.45-1.2,4.36-1.7,1.19-4.09-.42-4.86-2.34s-.69-4.11-1.52-6a11.86,11.86,0,0,1-1-2.32,4.18,4.18,0,0,0-.52-1.91c-.87-1-2.69.12-2.79,1.46s.76,2.52,1.41,3.7,1.05,2.76.17,3.78c-.42.49-1.08.74-1.49,1.24-1.42,1.73,1.07,4.12,1,6.36-.05,1.66-1.49,2.91-2.85,3.85-1.67,1.15-4.6,1.79-5.16-.15a16.32,16.32,0,0,1-.07-2.1,5.14,5.14,0,0,0-1.24-2.1,10.49,10.49,0,0,1-2.15-5.64c1.3,2.37,2.58,5.43,1,7.6a11.16,11.16,0,0,1-2.66,2.1c-1.8,1.3-3.11,3.18-4.9,4.51s-4.44,2-6.16.56a5,5,0,0,1-9.12,3.4,4.32,4.32,0,0,0-1.13-1.43,3.59,3.59,0,0,0-1.93-.3,10.82,10.82,0,0,1-9.56-6l2.08-.33c-3.75-1.19-7.65-2.47-10.45-5.24s-4.08-7.49-1.79-10.69c1-1.38,2.66-2.69,2.31-4.36-.23-1.15-1.35-1.87-2.38-2.45l-12.82-7.29c-2.08-1.18-4.26-2.46-5.4-4.56s-.72-5.24,1.47-6.18a12.71,12.71,0,0,0-3.82-6c-2-1.78-4.57-2.87-6.68-4.55s-3.83-4.35-3.18-7,4.67-4,6.15-1.75c.35-4.06-6.71-5.59-6.61-9.67.09-3.31,4.51-4.23,7.07-6.32-.23-1.2-1.24-2.12-1.51-3.31-.56-2.49,2.27-4.38,4.73-5.05s5.44-1.27,6.43-3.62-.63-5.64,1.11-7.6a2.9,2.9,0,0,1,3.91-.25c2.65-4.28,10.69.75,14-3a1.77,1.77,0,0,0,.49-1.06,1.88,1.88,0,0,0-.27-1c-.77-1.45-2.2-2.4-3.29-3.61s-1.87-3.06-1-4.46,3.69-.83,3.36.77a3.6,3.6,0,0,1,5.17,2.33c1.35-1.14,3.52-.73,4.86.43a11.37,11.37,0,0,1,2.72,4.52" style="fill:#263238"></path><path d="M313.68,87.71c-.39-6.85-4.44-13-9.2-17.95-2-2.08-4.23-4.07-7-5s-6.1-.39-7.91,1.85l-.35,4.8c-1.78,7.45,3.05,14.7,4.72,22.17.73,3.25,1.14,7.08,4,8.85a7.09,7.09,0,0,0,5.06.75C309.75,102,314.08,94.57,313.68,87.71Z" style="fill:#455a64"></path><path d="M308.92,122.69a15.37,15.37,0,0,0,1.39-19.64c3.27-3.1,3-8.63.7-12.48s-6.26-6.43-10-8.87c-.78-10.53-11.24-19.33-21.74-18.31-4.2-8.53-15.3-11.34-24.71-10-2.3.33-4.62.85-6.92.52a40.85,40.85,0,0,1-4.91-1.4c-9-2.53-19.05,2.65-23.84,10.7a16.9,16.9,0,0,1-2.52,3.7c-1.4,1.37-3.34,2-5.05,3A14.83,14.83,0,0,0,204.13,80c-.66,3.55-.06,7.5-2,10.53-1,1.52-2.53,2.64-3.35,4.25-2.39,4.66,2.34,10.44.61,15.39-.35,1-1,1.91-1.39,2.89a9.14,9.14,0,0,0-.34,6.41c.51,1.61,1.49,3.15,1.35,4.84a14.8,14.8,0,0,1-1.27,3.61c-1.05,2.95,3.86,15.59,6.25,17.62l78.39,11.77a14.8,14.8,0,0,0,13.13-11,5.51,5.51,0,0,1,1.14-2.79,6.3,6.3,0,0,1,2.34-1.09c5.43-2,7-8.85,7.3-14.63a6.9,6.9,0,0,1,.38-2.4A8.74,8.74,0,0,1,308.92,122.69Z" style="fill:#263238"></path><path d="M286.53,119.65c2.19-13.86-4.27-31.05-17.11-39.79-8.09-5.51-14.87-6.5-19.37-7.67A32.1,32.1,0,0,0,231,73.46c-4.47.4-22.37,12.68-25.41,28.32-3.39,17.37-6.83,38.71-6.46,52.05.75,26.82,20.46,32.78,20.46,32.78s-4.2,18-4.2,18l56.64,6.8Z" style="fill:#b56760"></path><path d="M238.92,155a5.62,5.62,0,0,0-1.27-3.74,5.72,5.72,0,0,0-6.73-1.66,7.66,7.66,0,0,0-4.17,6.53h0a6.93,6.93,0,0,0,4.36,3.74,7.41,7.41,0,0,0,.91.2,6.24,6.24,0,0,0,4.44-.86A5.57,5.57,0,0,0,238.92,155Z" style="fill:#8a4a43"></path><path d="M212.52,125.29a3.39,3.39,0,0,0,2.8,3.83,3.25,3.25,0,0,0,3.87-2.59,3.39,3.39,0,0,0-2.8-3.82A3.25,3.25,0,0,0,212.52,125.29Z" style="fill:#263238"></path><path d="M210.18,112.63c.36.49,3.16-1.07,6.78-.59s6,2.65,6.5,2.25c.22-.17-.1-1-1.15-2a9.28,9.28,0,0,0-5.13-2.34,8.88,8.88,0,0,0-5.47,1C210.48,111.66,210,112.4,210.18,112.63Z" style="fill:#263238"></path><path d="M227.67,144c0-.21-2.16-.89-5.75-1.83-.92-.22-1.77-.52-1.84-1.17a4.7,4.7,0,0,1,1-2.66l3.66-6.7c5.11-9.54,8.94-17.44,8.55-17.64s-4.84,7.37-9.95,16.91l-3.55,6.75c-.49,1-1.24,2.12-.95,3.57a2.35,2.35,0,0,0,1.34,1.56,6.35,6.35,0,0,0,1.55.42C225.35,143.92,227.63,144.23,227.67,144Z" style="fill:#263238"></path><path d="M219.58,186.61a67.44,67.44,0,0,0,36.41-4.8S244.56,198.9,218.58,193Z" style="fill:#8a4a43"></path><path d="M238,147.92c-.58-.11-1.1,3.83-4.84,6.18s-7.86,1.38-8,1.93c-.09.24.83.88,2.6,1.16a9.85,9.85,0,0,0,6.62-1.38,8.59,8.59,0,0,0,3.8-5.22C238.6,149,238.29,147.94,238,147.92Z" style="fill:#263238"></path><path d="M213.41,99.23c.5,1,3.35.73,6.56,1.43s5.79,1.89,6.6,1.19c.37-.35.13-1.26-.88-2.3a10.41,10.41,0,0,0-10.6-2.11C213.77,98,213.2,98.77,213.41,99.23Z" style="fill:#263238"></path><path d="M251.42,131.38a3.41,3.41,0,0,1-3.8,2.84,3.25,3.25,0,0,1-3-3.6,3.41,3.41,0,0,1,3.8-2.84A3.25,3.25,0,0,1,251.42,131.38Z" style="fill:#263238"></path><path d="M259.61,120.51c-.49.37-2.71-1.94-6.32-2.54s-6.56.76-6.87.25c-.16-.22.4-.94,1.69-1.59a9.34,9.34,0,0,1,5.59-.74,9,9,0,0,1,4.94,2.57C259.6,119.49,259.85,120.35,259.61,120.51Z" style="fill:#263238"></path><path d="M262.22,108.49c-.85.69-3.49-.62-6.83-1.23s-6.27-.49-6.78-1.45c-.21-.47.37-1.21,1.74-1.78a11,11,0,0,1,11,2.16C262.35,107.23,262.6,108.14,262.22,108.49Z" style="fill:#263238"></path><path d="M278.94,144c.26-2,3.12-6.28,5.09-6.33,5.27-.13,14.52,1.49,12.9,14.61-2.22,17.93-19.76,12-19.73,11.49S278,150.73,278.94,144Z" style="fill:#b56760"></path><path d="M283,157.81c.08,0,.28.26.78.57a3.12,3.12,0,0,0,2.33.33c2-.46,3.94-3.27,4.43-6.49a10.34,10.34,0,0,0-.32-4.58,3.64,3.64,0,0,0-2.06-2.69,1.59,1.59,0,0,0-1.94.63c-.31.47-.24.84-.34.86s-.34-.34-.11-1.07a2,2,0,0,1,.85-1,2.36,2.36,0,0,1,1.78-.25,4.44,4.44,0,0,1,2.92,3.19,10.71,10.71,0,0,1,.47,5.13c-.56,3.6-2.83,6.75-5.52,7.18a3.4,3.4,0,0,1-2.8-.83C282.93,158.25,282.89,157.84,283,157.81Z" style="fill:#8a4a43"></path><path d="M201.45,101.49c3.92-1.79,6.63-4.57,7-8.86,2.31,1,5.15-1.74,6.82-3.64s3.52-2.71,3.74-5.23a3,3,0,0,1,.37-1.43,3.11,3.11,0,0,1,2.11-.89,12.07,12.07,0,0,0,9-7.3,25.64,25.64,0,0,0,12,3.63A9.79,9.79,0,0,0,259,79.21a8.78,8.78,0,0,0,5.26,5.05,25.84,25.84,0,0,0,7.38,1.38,10.35,10.35,0,0,0,5.24,12.52c.61.27,1.32.57,1.53,1.2s-.2,1.35-.53,2a8.16,8.16,0,0,0,4.06,11c-3.22,1.89-3.61,7.18-.69,9.52.6.47,1.39,1.06,1.19,1.8a1.72,1.72,0,0,1-.49.71c-1.57,1.6-3.15,3.36-3.6,5.55s.72,4.87,2.92,5.26a5.77,5.77,0,0,0-2.79,3.62c-.23,1.56,1.14,3.35,2.66,3,.65-.16,9.8-.75,10.26-1.23,6-6.21.59-14.65,1.21-23.25A56,56,0,0,0,288,92.08a41.08,41.08,0,0,0-5.23-9.47,54.54,54.54,0,0,0-8.9-8.54c-4.16-3.41-8.44-6.83-13.47-8.73C251,61.79,240.52,64,231,67a42.41,42.41,0,0,0-10.48,4.46,38.53,38.53,0,0,0-9.6,9.63c-3.94,5.28-7.4,11.08-8.88,17.49" style="fill:#263238"></path><path d="M198.76,94.76A6.67,6.67,0,0,1,200,93c.45-.54,1.08-1.16,1.71-2a8.43,8.43,0,0,0,1.44-3.21,25.85,25.85,0,0,0,.51-4.44,20,20,0,0,1,.84-5.3,15.16,15.16,0,0,1,3.1-5.33,14.91,14.91,0,0,1,2.54-2.25,22.79,22.79,0,0,1,3.11-1.73,11,11,0,0,0,3-2,14.47,14.47,0,0,0,2.14-3.14,24.28,24.28,0,0,1,12.91-10.77,21.35,21.35,0,0,1,4.53-1.06,20.16,20.16,0,0,1,4.78.09,22,22,0,0,1,2.38.52c.79.23,1.56.5,2.33.74a11.41,11.41,0,0,0,4.78.64c1.65-.1,3.3-.47,5-.66a30.87,30.87,0,0,1,5.19-.23,31.38,31.38,0,0,1,5.26.65,27.4,27.4,0,0,1,5.13,1.66,17.8,17.8,0,0,1,8.22,7.14l.55,1-.27-.15a21,21,0,0,1,22,18.56l-.12-.2A59,59,0,0,1,307,85.63a19,19,0,0,1,4.52,5.26A12.46,12.46,0,0,1,313,97.38a8.53,8.53,0,0,1-2.51,5.83l0-.3a14.88,14.88,0,0,1,2.9,9.74,15.32,15.32,0,0,1-3,8.66,14.71,14.71,0,0,1-1.42,1.61,19.74,19.74,0,0,0-1.45,1.44,4,4,0,0,0-.87,1.67,10.57,10.57,0,0,0-.19,1.86,29.39,29.39,0,0,1-1.1,6.78,14.44,14.44,0,0,1-2.44,4.94,8.9,8.9,0,0,1-3.17,2.53c-1,.49-1.86.62-2.36.89a4.08,4.08,0,0,0-.72.45,2.17,2.17,0,0,1,.69-.51c.5-.3,1.35-.45,2.33-.95a8.84,8.84,0,0,0,3.07-2.54,14.38,14.38,0,0,0,2.36-4.89,30,30,0,0,0,1-6.71,10.87,10.87,0,0,1,.19-1.93,4.23,4.23,0,0,1,.93-1.81,18.4,18.4,0,0,1,1.46-1.47,14.05,14.05,0,0,0,1.38-1.59,14.94,14.94,0,0,0,2.92-8.44,14.5,14.5,0,0,0-2.85-9.45L310,103l.14-.14a8.07,8.07,0,0,0,2.36-5.52A11.89,11.89,0,0,0,311,91.13,18.48,18.48,0,0,0,306.62,86a56.51,56.51,0,0,0-5.79-4.1l-.11-.07v-.13a20.44,20.44,0,0,0-21.46-18.06l-.17,0-.1-.17c-.17-.31-.35-.62-.53-.93a17.28,17.28,0,0,0-8-6.93,27.92,27.92,0,0,0-5-1.63,31.1,31.1,0,0,0-10.28-.42c-1.68.19-3.34.56-5,.66a12,12,0,0,1-2.54-.07,15.26,15.26,0,0,1-2.44-.6c-.78-.25-1.54-.52-2.31-.75a23.39,23.39,0,0,0-2.32-.5,19.07,19.07,0,0,0-4.65-.1,20.91,20.91,0,0,0-4.42,1,23.77,23.77,0,0,0-12.7,10.53A15,15,0,0,1,216.54,67a11.78,11.78,0,0,1-3.14,2,21.42,21.42,0,0,0-3.07,1.68,14.63,14.63,0,0,0-2.49,2.18,14.78,14.78,0,0,0-3.07,5.2,19.58,19.58,0,0,0-.87,5.22,26.33,26.33,0,0,1-.56,4.47,8.66,8.66,0,0,1-1.52,3.26c-.65.83-1.29,1.44-1.76,2a9.49,9.49,0,0,0-1,1.26C198.85,94.6,198.77,94.77,198.76,94.76Z" style="fill:#455a64"></path><path d="M271.34,58.34s-.43-.33-1.25-.88a12.14,12.14,0,0,0-3.75-1.65,11.43,11.43,0,0,0-6,.07,11.8,11.8,0,0,0-6,4.14,9.75,9.75,0,0,0-1.16,1.91,2.21,2.21,0,0,0-.12,1.9l.35.67-.69-.3a7.47,7.47,0,0,0-5.63-.08A7.23,7.23,0,0,0,243.61,67a7.92,7.92,0,0,0-1.09,2.86c-.12.71-.12,1.11-.16,1.11a.78.78,0,0,1,0-.29,4.22,4.22,0,0,1,0-.85,7.31,7.31,0,0,1,1-3,7.42,7.42,0,0,1,3.6-3.16,7.86,7.86,0,0,1,6,0l-.34.37a2.71,2.71,0,0,1,.09-2.36,10.22,10.22,0,0,1,1.22-2,12.11,12.11,0,0,1,6.3-4.29,11.52,11.52,0,0,1,6.24,0,11.32,11.32,0,0,1,3.77,1.86,7.12,7.12,0,0,1,.87.75C271.27,58.22,271.36,58.33,271.34,58.34Z" style="fill:#455a64"></path><path d="M297.67,82.77a3.25,3.25,0,0,1-.72.55,11.22,11.22,0,0,1-2.21,1.14,8.66,8.66,0,0,1-3.71.6,6.48,6.48,0,0,1-4.27-1.94h.4l-.62.67c-.22.21-.47.41-.7.62A10.89,10.89,0,0,1,281,86.59a11.21,11.21,0,0,1-4.34,0,9.87,9.87,0,0,1-2.73-1,3.78,3.78,0,0,1-.87-.62,15.82,15.82,0,0,0,3.67,1.26,11.57,11.57,0,0,0,4.17-.08,10.84,10.84,0,0,0,4.6-2.12c.23-.2.46-.39.67-.59l.59-.63.21-.22.2.22a6.09,6.09,0,0,0,3.91,1.82,8.68,8.68,0,0,0,3.55-.46C296.57,83.44,297.62,82.68,297.67,82.77Z" style="fill:#455a64"></path><path d="M304.92,100.63s0,.12-.09.33a3.09,3.09,0,0,1-.51.81,4.87,4.87,0,0,1-3.14,1.54,9.3,9.3,0,0,1-5-1.24,30.45,30.45,0,0,1-2.68-1.49A5,5,0,0,1,291.28,98l-.07-.31.41.19a20.8,20.8,0,0,1-5.74,2.48,9.23,9.23,0,0,1-5.1-.15,6.71,6.71,0,0,1-2.91-1.82,3.65,3.65,0,0,1-.56-.75.87.87,0,0,1-.14-.3s.28.36.85.9a6.94,6.94,0,0,0,2.87,1.61,9.22,9.22,0,0,0,4.88,0,20.89,20.89,0,0,0,5.57-2.46l.32-.19.09.37.06.26a4.49,4.49,0,0,0,1.95,2.29c.85.56,1.76,1,2.6,1.48a9.09,9.09,0,0,0,4.78,1.3,4.81,4.81,0,0,0,3-1.29A7.22,7.22,0,0,0,304.92,100.63Z" style="fill:#455a64"></path><path d="M332.6,39.23s-.31,0-.87,0a4.17,4.17,0,0,0-2.17,1,5.67,5.67,0,0,0-1.8,3.25,16.55,16.55,0,0,0,0,5l0,.3-.3-.05a10.23,10.23,0,0,0-6.44,1.07,8,8,0,0,0-4.23,5.82A7.4,7.4,0,0,0,318.65,62l.54.55-.76-.1a9.3,9.3,0,0,0-7.19,2.08,8.93,8.93,0,0,0-3,5.19,9.7,9.7,0,0,0,.08,4c.22.93.44,1.4.4,1.42a1.29,1.29,0,0,1-.19-.34,6,6,0,0,1-.38-1,9.32,9.32,0,0,1-.24-4.14A9.21,9.21,0,0,1,311,64.14a9.71,9.71,0,0,1,7.55-2.25l-.22.44a7.89,7.89,0,0,1-2-6.77,8.16,8.16,0,0,1,1.57-3.71,9.16,9.16,0,0,1,2.95-2.48,10.62,10.62,0,0,1,6.77-1.06l-.27.25a16.91,16.91,0,0,1,.07-5.1,5.86,5.86,0,0,1,2-3.37,4.13,4.13,0,0,1,2.33-1,3,3,0,0,1,.66,0A.66.66,0,0,1,332.6,39.23Z" style="fill:#455a64"></path><path d="M359.41,82.28s-.1.06-.32.14-.52.19-.95.29a13,13,0,0,1-3.71.34,14.3,14.3,0,0,1-5.54-1.42,13.7,13.7,0,0,1-5.51-4.76l.41,0a11.51,11.51,0,0,1-8.8,4.46,8.73,8.73,0,0,1-8.29-5.93l.47,0a7.27,7.27,0,0,1-2.56,2.76,9.71,9.71,0,0,1-3.16,1.27,13.15,13.15,0,0,1-5.52-.15,26,26,0,0,1-3.45-1,7.74,7.74,0,0,1-1.18-.49,7.94,7.94,0,0,1,1.23.34A33.09,33.09,0,0,0,316,79a13.34,13.34,0,0,0,5.37,0,7.85,7.85,0,0,0,5.36-3.84l.29-.58.18.62A8.22,8.22,0,0,0,335,80.8a11,11,0,0,0,8.39-4.23l.22-.27.19.29a13.37,13.37,0,0,0,5.28,4.65,14.41,14.41,0,0,0,5.37,1.5A16.67,16.67,0,0,0,359.41,82.28Z" style="fill:#455a64"></path><path d="M337.15,106s0,.14-.25.3a1.83,1.83,0,0,1-1.08.31,8.25,8.25,0,0,1-3.87-1.18A9.75,9.75,0,0,1,327.9,101a10.06,10.06,0,0,1-.37-7.3v0l.35.35a11.78,11.78,0,0,1-7.31,0A13.1,13.1,0,0,1,315.45,91a14.85,14.85,0,0,1-2.5-3.15,5.49,5.49,0,0,1-.63-1.33,21.69,21.69,0,0,0,3.39,4.2,13,13,0,0,0,5,2.87,11.41,11.41,0,0,0,7-.07l.51-.18-.16.53,0,0a9.5,9.5,0,0,0,4.11,11.2,8.77,8.77,0,0,0,3.67,1.3A1.87,1.87,0,0,0,337.15,106Z" style="fill:#455a64"></path><path d="M293.37,34.69a15.35,15.35,0,0,0-1.54,5.39,12.37,12.37,0,0,0,9.75,13l.33.07-.14.3a15.83,15.83,0,0,0-1.43,5.69,16.24,16.24,0,0,0,.42,4.68,12.91,12.91,0,0,0,.52,1.7,1.34,1.34,0,0,0,.85.85.9.9,0,0,0,.75-.12c.14-.11.18-.21.2-.2s0,.12-.14.27a.94.94,0,0,1-.84.23,1.52,1.52,0,0,1-1.06-.91,10.53,10.53,0,0,1-.61-1.73,15.85,15.85,0,0,1-.55-4.79,16.07,16.07,0,0,1,1.4-5.9l.19.38A12.67,12.67,0,0,1,297.34,52a12.38,12.38,0,0,1-5.9-11.92,12.33,12.33,0,0,1,1.12-4,11.36,11.36,0,0,1,.56-1C293.27,34.79,293.35,34.68,293.37,34.69Z" style="fill:#455a64"></path><path d="M308,369.59,318,389s-30,23.84-60.67,23.84-73.44-15.07-73.44-15.07V372.51Z" style="fill:#b56760"></path><path d="M267.62,203l20.64,7.12s-25.72,23.27-44.59,23-45.07-9.08-49.24-15.07-3.87-8.11-3.87-8.11l26.12-7Z" style="fill:#b56760"></path><path d="M350.93,475.13s-6.7-31.79-11-45.87C334.27,410.39,318,389,318,389c-46,8.5-90.77,11.62-134.11,8.77L159,475Z" style="fill:#263238"></path><path d="M187.53,412.51a4.79,4.79,0,1,1-4.79-4.79A4.78,4.78,0,0,1,187.53,412.51Z" style="fill:#263238"></path><path d="M187.53,424.47a4.79,4.79,0,1,1-4.79-4.79A4.79,4.79,0,0,1,187.53,424.47Z" style="fill:#263238"></path><rect x="181.6" y="399.61" width="58.79" height="71.71" rx="2.42" style="fill:#FF725E"></rect><rect x="182.68" y="412.42" width="62.8" height="46.1" transform="translate(-223.12 646) rotate(-89.53)" style="fill:#263238"></rect><path d="M225.36,465.59c.37.09,10.23.08,10.23.08l.49-60.25-10.23-.08,0,4.65,2.14,1.38-.39,48.38-2.17,1.75Z" style="fill:#fff"></path><rect x="164.71" y="432.48" width="60.3" height="5.67" transform="translate(-242.03 626.63) rotate(-89.53)" style="fill:#fff"></rect><rect x="188.83" y="423.46" width="47.75" height="24.84" transform="translate(-224.89 645.03) rotate(-89.53)" style="fill:#455a64"></rect><path d="M213.56,441.74a5.6,5.6,0,1,1-5.64,5.56A5.6,5.6,0,0,1,213.56,441.74Z" style="fill:#e0e0e0"></path><path d="M211.15,448.74a2.64,2.64,0,0,1-.28-.67l-.66-.14v-1.11l.66-.16a2.77,2.77,0,0,1,.27-.67l-.37-.57.78-.79.58.35a2.73,2.73,0,0,1,.66-.28l.15-.66H214l.16.66a2.25,2.25,0,0,1,.67.27l.56-.37.8.78-.35.57a3,3,0,0,1,.28.67l.66.15v1.11l-.66.15a2.84,2.84,0,0,1-.27.68l.37.56-.78.8-.58-.36a2.76,2.76,0,0,1-.66.29l-.15.66H213l-.16-.66a2.77,2.77,0,0,1-.67-.27l-.56.36-.8-.78.35-.57Z" style="fill:#263238"></path><path d="M213.57,440.77c0,.05-.59,0-1.59.29a6.6,6.6,0,0,0-3.52,2.37,6.4,6.4,0,0,0-.91,6,6.18,6.18,0,0,0,2.19,2.95,6.29,6.29,0,0,0,7.47.06,6.2,6.2,0,0,0,2.24-2.91,6.4,6.4,0,0,0-.82-6,6.64,6.64,0,0,0-3.48-2.44c-1-.28-1.59-.26-1.58-.31s.14,0,.42,0a4.88,4.88,0,0,1,1.21.15,6.48,6.48,0,0,1,3.72,2.41,6.74,6.74,0,0,1,1,6.42,6.68,6.68,0,0,1-2.39,3.16,6.87,6.87,0,0,1-4,1.3,6.78,6.78,0,0,1-5.29-11,6.57,6.57,0,0,1,3.77-2.35,5.16,5.16,0,0,1,1.21-.13A1.3,1.3,0,0,1,213.57,440.77Z" style="fill:#263238"></path><path d="M213.55,442.55c0,.05-.42,0-1.14.24a4.84,4.84,0,0,0-2.54,1.74,4.57,4.57,0,1,0,7.33.05,4.81,4.81,0,0,0-2.5-1.77c-.72-.21-1.15-.21-1.15-.26s.11,0,.31,0a3.61,3.61,0,0,1,.89.09,4.78,4.78,0,0,1,2.74,1.75,5,5,0,0,1,.74,4.74,5,5,0,0,1-9.46-.08,5,5,0,0,1,.81-4.72,4.85,4.85,0,0,1,2.78-1.71,4.05,4.05,0,0,1,.89-.08C213.45,442.52,213.55,442.53,213.55,442.55Z" style="fill:#263238"></path><path d="M213.75,418.43a5.6,5.6,0,1,1-5.64,5.56A5.6,5.6,0,0,1,213.75,418.43Z" style="fill:#e0e0e0"></path><path d="M211.34,425.43a2.8,2.8,0,0,1-.28-.67l-.66-.14v-1.11l.66-.16a2.77,2.77,0,0,1,.27-.67l-.37-.57.78-.79.58.35a2.73,2.73,0,0,1,.66-.28l.15-.66h1.11l.15.65a2.51,2.51,0,0,1,.68.28l.56-.37.8.78-.35.57a2.8,2.8,0,0,1,.28.67l.66.14v1.12l-.66.15a2.84,2.84,0,0,1-.27.68l.37.56-.78.8-.58-.36a2.67,2.67,0,0,1-.67.29l-.14.65h-1.11l-.16-.65a2.77,2.77,0,0,1-.67-.27l-.56.36L211,426l.35-.57Z" style="fill:#263238"></path><path d="M213.76,417.45c0,.06-.59,0-1.59.3a6.6,6.6,0,0,0-3.52,2.37,6.4,6.4,0,0,0-.91,6,6.18,6.18,0,0,0,2.19,2.95,6.29,6.29,0,0,0,7.47.06,6.2,6.2,0,0,0,2.24-2.91,6.4,6.4,0,0,0-.82-6,6.58,6.58,0,0,0-3.48-2.44c-1-.28-1.59-.26-1.58-.32a1.91,1.91,0,0,1,.42,0,4.88,4.88,0,0,1,1.21.15,6.54,6.54,0,0,1,3.72,2.4,6.76,6.76,0,0,1-1.41,9.59,6.78,6.78,0,0,1-8.08-.07,6.76,6.76,0,0,1-1.26-9.6,6.57,6.57,0,0,1,3.77-2.35,5.16,5.16,0,0,1,1.21-.13Z" style="fill:#263238"></path><path d="M213.74,419.24c0,.05-.42,0-1.14.24a4.81,4.81,0,0,0-2.54,1.73,4.64,4.64,0,0,0-.64,4.34,4.56,4.56,0,0,0,8.55.07,4.64,4.64,0,0,0-.58-4.35,4.75,4.75,0,0,0-2.5-1.77c-.72-.21-1.15-.21-1.15-.26s.11,0,.31,0a4.33,4.33,0,0,1,.89.1,4.78,4.78,0,0,1,2.74,1.75,5,5,0,0,1,.74,4.73,5,5,0,0,1-9.46-.07,5,5,0,0,1,.81-4.72,4.79,4.79,0,0,1,2.78-1.71,3.51,3.51,0,0,1,.89-.08C213.64,419.21,213.74,419.22,213.74,419.24Z" style="fill:#263238"></path><path d="M225.18,423.48s-.21.25-.65.65-1.1.95-1.92,1.63l.06-.13c0,2.36,0,5.81,0,9.65,0,4-.1,7.61-.17,10l-.09-.15a19.51,19.51,0,0,1,2.62,1.71,20.79,20.79,0,0,1-2.78-1.42l-.09,0v-.1c0-2.36,0-6,0-10,0-3.84.09-7.29.16-9.65v-.09l.06-.05c.85-.65,1.54-1.17,2-1.51A3.18,3.18,0,0,1,225.18,423.48Z" style="fill:#263238"></path><path d="M204.28,411.91c.14,0,.17,10.6.07,23.67s-.31,23.68-.45,23.68-.18-10.6-.07-23.68S204.14,411.91,204.28,411.91Z" style="fill:#263238"></path><rect x="208.91" y="392.01" width="4.79" height="7.59" style="fill:#455a64"></rect><polygon points="217.07 393.79 212.71 394.45 212.71 392.01 217.07 392.01 217.07 393.79" style="fill:#455a64"></polygon><g style="opacity:0.5"><path d="M189.44,464.91a4.1,4.1,0,0,1-.61,1.31l-1.29-.58a4,4,0,0,0,.56-1.13,4.21,4.21,0,0,0,.21-1.3,2.12,2.12,0,0,0-.21-1.07.67.67,0,0,0-.58-.35.53.53,0,0,0-.43.21,1.43,1.43,0,0,0-.28.52,8.5,8.5,0,0,0-.23.87c-.14.56-.27,1-.4,1.38a2.35,2.35,0,0,1-.65.92,1.73,1.73,0,0,1-1.17.38,2.09,2.09,0,0,1-1.17-.35,2.36,2.36,0,0,1-.82-1,4.35,4.35,0,0,1-.31-1.71,5.79,5.79,0,0,1,.17-1.38,4.06,4.06,0,0,1,.49-1.18l1.29.53a4.06,4.06,0,0,0-.58,2,2,2,0,0,0,.23,1.06.73.73,0,0,0,.61.34.61.61,0,0,0,.57-.4,6.35,6.35,0,0,0,.36-1.2,10.45,10.45,0,0,1,.4-1.38,2.23,2.23,0,0,1,.63-.92,1.68,1.68,0,0,1,1.17-.38,2,2,0,0,1,1.15.35,2.36,2.36,0,0,1,.82,1.06,4.18,4.18,0,0,1,.31,1.71A6,6,0,0,1,189.44,464.91Z" style="fill:#fff"></path><path d="M183.58,457.51v2.36h-1.39v-6.42h1.39v2.36h6v1.7Z" style="fill:#fff"></path><path d="M188.18,446.84h1.37v5.7h-7.36V447h1.37v3.87h1.6v-3.41h1.32v3.41h1.7Z" style="fill:#fff"></path><path d="M189.55,440.79l-2.05,1.42v1.57h2.05v1.7h-7.36v-3.19a4.06,4.06,0,0,1,.33-1.7,2.47,2.47,0,0,1,.92-1.11,2.53,2.53,0,0,1,3.75,1.13l2.36-1.65Zm-5.64.43a1.81,1.81,0,0,0-.33,1.17v1.39h2.56v-1.39a1.81,1.81,0,0,0-.33-1.17,1.17,1.17,0,0,0-.95-.4A1.16,1.16,0,0,0,183.91,441.22Z" style="fill:#fff"></path><path d="M188.18,432.05h1.37v5.7h-7.36v-5.56h1.37v3.87h1.6v-3.42h1.32v3.42h1.7Z" style="fill:#fff"></path><path d="M189.18,429.22a3.7,3.7,0,0,1-1.36,1.44,3.92,3.92,0,0,1-3.9,0,3.7,3.7,0,0,1-1.36-1.44,4.34,4.34,0,0,1-.5-2.07,4.27,4.27,0,0,1,.5-2.06,3.75,3.75,0,0,1,6.62,0,4.27,4.27,0,0,1,.5,2.06A4.34,4.34,0,0,1,189.18,429.22ZM187.93,426a2.14,2.14,0,0,0-.84-.82,2.45,2.45,0,0,0-1.22-.3,2.48,2.48,0,0,0-1.22.3,2,2,0,0,0-.83.82,2.33,2.33,0,0,0-.3,1.18,2.35,2.35,0,0,0,.3,1.18,2,2,0,0,0,.83.82,2.48,2.48,0,0,0,1.22.3,2.45,2.45,0,0,0,1.22-.3,2.14,2.14,0,0,0,.84-.82,2.35,2.35,0,0,0,.3-1.18A2.33,2.33,0,0,0,187.93,426Z" style="fill:#fff"></path></g><polygon points="181.6 421.99 191.19 416.21 191.19 412.61 181.6 418.43 181.6 421.99" style="fill:#fff"></polygon><polygon points="181.6 415.85 191.19 410.07 191.19 406.47 181.6 412.29 181.6 415.85" style="fill:#fff"></polygon><path d="M187.12,471.3c-.14,0-.26-16-.26-35.83s.12-35.83.26-35.83.26,16,.26,35.83S187.27,471.3,187.12,471.3Z" style="fill:#263238"></path><path d="M238.9,469.12s0-.12,0-.33l0-1c0-.86,0-2.1,0-3.71,0-3.25,0-8-.07-13.94,0-11.95-.06-28.91-.11-49l.23.23-51.69,0h0l.26-.26c0,25.27,0,48.71,0,67.95l-.22-.21,37.51.11,10.47.05,2.76,0c.63,0,1,0,1,0s-.3,0-.91,0l-2.73,0-10.41.05-37.65.11H187v-.21c0-19.24,0-42.68-.05-67.95v-.26h.27l51.69,0h.24v.24c0,20.16-.09,37.17-.12,49.16,0,5.95-.05,10.65-.06,13.89,0,1.58,0,2.81,0,3.66v.93A1.77,1.77,0,0,1,238.9,469.12Z" style="fill:#263238"></path><path d="M232.62,461.69c-.14,0-.26-11.48-.26-25.65s.12-25.65.26-25.65.26,11.48.26,25.65S232.77,461.69,232.62,461.69Z" style="fill:#263238"></path><path d="M230.61,452.36c-.15,0-.26-7-.26-15.54s.11-15.54.26-15.54.26,7,.26,15.54S230.75,452.36,230.61,452.36Z" style="fill:#263238"></path><path d="M194.45,455c-.15,0-.27-9.79-.27-21.86s.12-21.86.27-21.86.26,9.78.26,21.86S194.59,455,194.45,455Z" style="fill:#263238"></path><rect x="198.94" y="395.17" width="6.45" height="4.47" style="fill:#FF725E"></rect><rect x="189.48" y="395.17" width="6.45" height="4.47" style="fill:#FF725E"></rect><path d="M236.42,399.64a1.47,1.47,0,0,1,.39,0l1.18,0v.16c-3.61.11-14.08.18-26.42.18l-19.8-.08-6-.08-1.63-.05a1.92,1.92,0,0,1-.57-.05,2.49,2.49,0,0,1,.57-.05l1.63,0,6-.08,19.8-.08c12.34,0,22.81.07,26.42.18v.16l-1.18,0C236.55,399.67,236.42,399.66,236.42,399.64Z" style="fill:#263238"></path><path d="M359.31,290.85s-20.89-61.63-29.62-70.4c-8-8-48.95-12.65-48.95-12.65s-19.34,23.34-51.47,15.56-35.14-15.56-35.14-15.56l-29.48,8.25a46.87,46.87,0,0,0-25.24,17.47c-14.18,19.36-36.26,51.24-36.26,51.24l41.6,28.92,17.09-21,9.72,46.92,4.28,40.07s55.94,5.14,71,3.68,65.06-8.74,69.62-10.2l2.18-77.46Z" style="fill:#455a64"></path><path d="M212.77,352.47a3.55,3.55,0,0,0,.74.17l2.13.36c1.85.32,4.54.7,7.88,1.1a245.44,245.44,0,0,0,26.17,1.73,247.73,247.73,0,0,0,26.2-1.08c3.35-.32,6-.64,7.9-.91l2.14-.31a6.43,6.43,0,0,0,.74-.14,3.54,3.54,0,0,0-.75,0l-2.15.21c-1.87.2-4.57.46-7.91.74-6.68.55-15.94,1-26.17.91s-19.47-.84-26.13-1.56c-3.33-.36-6-.68-7.89-.93l-2.14-.26A6.81,6.81,0,0,0,212.77,352.47Z" style="fill:#263238"></path><path d="M236,331.06a7.64,7.64,0,0,0,1.12.77c.74.47,1.83,1.12,3.18,1.89a121.11,121.11,0,0,0,10.94,5.43,117.62,117.62,0,0,0,11.42,4.3c1.49.47,2.71.83,3.55,1.05a7.28,7.28,0,0,0,1.33.29,6.39,6.39,0,0,0-1.27-.5l-3.49-1.2c-2.94-1-7-2.54-11.33-4.44s-8.2-3.82-11-5.27l-3.26-1.73A5.3,5.3,0,0,0,236,331.06Z" style="fill:#263238"></path><path d="M335.78,281.45a6.47,6.47,0,0,0-1.63-2.07,8.38,8.38,0,0,0-7.25-1.12,10.23,10.23,0,0,0-4.72,2.64,25.64,25.64,0,0,0-4.05,5.13c-1.29,2-2.52,4.19-4.21,6.31a15.64,15.64,0,0,1-6.8,5.05,8.15,8.15,0,0,1-4.6.26,8.8,8.8,0,0,1-4.16-2.43c-2.34-2.36-3.78-5.5-5.53-8.49a19.83,19.83,0,0,0-3.11-4.25,7.07,7.07,0,0,0-4.75-2.13,7.37,7.37,0,0,0-5,2,11.38,11.38,0,0,0-3.16,4.67c-1.36,3.67-1.22,7.76-1.78,11.86a13.91,13.91,0,0,1-2.18,5.92,6.6,6.6,0,0,1-2.47,2.12,5.75,5.75,0,0,1-3.25.49,6.32,6.32,0,0,1-3-1.35,10.41,10.41,0,0,1-2.22-2.46,15.68,15.68,0,0,1-2.41-6.19c-.33-2.2-.47-4.42-.84-6.62a14.55,14.55,0,0,0-2.22-6.19,8.46,8.46,0,0,0-2.38-2.24,8,8,0,0,0-3.07-1.05,11.57,11.57,0,0,0-6.34,1.1,14.5,14.5,0,0,0-5.08,3.92,28.09,28.09,0,0,0-3.43,5.41c-1.91,3.8-3.26,7.82-5.4,11.39A23.63,23.63,0,0,1,227,308a14.16,14.16,0,0,1-5,3.31,11.7,11.7,0,0,1-5.85.56,14.2,14.2,0,0,1-5.32-2.1,25.54,25.54,0,0,1-7.52-7.82,80.18,80.18,0,0,1-4.58-9.05,55.47,55.47,0,0,0-4.43-8.17,26.55,26.55,0,0,0-2.74-3.33,18.49,18.49,0,0,0-3.19-2.55,18.82,18.82,0,0,0-7-2.57,22.09,22.09,0,0,0-6.51,0,21.61,21.61,0,0,0-5.28,1.53,18.15,18.15,0,0,0-6.18,4.37c-.16.15-.3.3-.43.44l-.33.42-.51.66c-.28.36-.43.53-.43.53s.12-.19.38-.56l.5-.68.32-.43c.13-.14.27-.3.42-.45a17.91,17.91,0,0,1,6.18-4.49,22.22,22.22,0,0,1,5.32-1.59,22.62,22.62,0,0,1,6.6-.08,18.92,18.92,0,0,1,7.12,2.58,18.39,18.39,0,0,1,3.26,2.58,25.68,25.68,0,0,1,2.8,3.37A55.29,55.29,0,0,1,199,292.7a81.08,81.08,0,0,0,4.58,9,25.24,25.24,0,0,0,7.4,7.67,13.84,13.84,0,0,0,5.16,2,11.22,11.22,0,0,0,5.61-.54c3.65-1.36,6.46-4.52,8.53-8s3.44-7.53,5.37-11.37a28.1,28.1,0,0,1,3.49-5.51,14.86,14.86,0,0,1,5.25-4.06,12.16,12.16,0,0,1,6.63-1.15,8.54,8.54,0,0,1,3.27,1.12,9,9,0,0,1,2.53,2.38,15,15,0,0,1,2.31,6.42c.37,2.23.52,4.45.85,6.62a14.92,14.92,0,0,0,2.32,6,7.5,7.5,0,0,0,4.89,3.6,5.29,5.29,0,0,0,3-.45,6.08,6.08,0,0,0,2.28-2,13.62,13.62,0,0,0,2.1-5.69c.56-4,.41-8.18,1.82-12a11.77,11.77,0,0,1,3.3-4.86A7.8,7.8,0,0,1,285,279.9a7.49,7.49,0,0,1,5,2.26,20.24,20.24,0,0,1,3.17,4.35c1.76,3,3.18,6.14,5.45,8.43a8.31,8.31,0,0,0,4,2.33A7.79,7.79,0,0,0,307,297a15.35,15.35,0,0,0,6.66-4.91c1.67-2.07,2.92-4.29,4.22-6.26a26,26,0,0,1,4.13-5.15,10.45,10.45,0,0,1,4.84-2.66,8.48,8.48,0,0,1,7.37,1.24,5.61,5.61,0,0,1,1.27,1.54C335.69,281.24,335.78,281.45,335.78,281.45Z" style="fill:#fff"></path><path d="M170.41,337a4.8,4.8,0,0,1-.2-.84c-.12-.61-.28-1.42-.47-2.44-.42-2.17-1-5.22-1.71-9-1.45-7.57-3.57-18-5.93-29.55s-4.41-22-5.78-29.59c-.68-3.79-1.21-6.87-1.54-9-.16-1-.28-1.85-.37-2.46a5.48,5.48,0,0,1-.1-.86,4.8,4.8,0,0,1,.2.84c.12.61.27,1.42.47,2.44.41,2.17,1,5.22,1.71,9,1.45,7.57,3.57,18,5.92,29.55s4.42,22,5.78,29.59c.69,3.79,1.21,6.87,1.55,9,.15,1,.28,1.85.37,2.46A7.68,7.68,0,0,1,170.41,337Z" style="fill:#263238"></path><circle cx="287.94" cy="151.92" r="12.73" transform="translate(-27.95 230.69) rotate(-41.82)" style="fill:#FF725E"></circle><path d="M302.88,114.36l-1-.12c0-.27,3.09-27.82-11.19-45.82-6.91-8.71-16.77-13.84-29.32-15.24l.11-1c12.82,1.44,22.91,6.7,30,15.62C306,86.13,302.91,114.08,302.88,114.36Z" style="fill:#e0e0e0"></path><circle cx="288.35" cy="151.82" r="6.63" style="fill:#455a64"></circle><path d="M294.87,153c-.05,0,.08-.59,0-1.63a6.68,6.68,0,0,0-1.74-3.91,6.45,6.45,0,0,0-5.82-2,6.34,6.34,0,0,0-3.32,1.65,6.39,6.39,0,0,0-1.38,7.41,6.29,6.29,0,0,0,2.5,2.74,6.45,6.45,0,0,0,6.14.25,6.55,6.55,0,0,0,3-3c.45-.94.54-1.53.59-1.51s0,.14,0,.42a6,6,0,0,1-.36,1.17,6.64,6.64,0,0,1-3.05,3.27,6.84,6.84,0,0,1-7.77-11.1,6.68,6.68,0,0,1,3.58-1.75,6.79,6.79,0,0,1,6.17,2.2,6.65,6.65,0,0,1,1.67,4.15,4.94,4.94,0,0,1-.09,1.22A1.16,1.16,0,0,1,294.87,153Z" style="fill:#263238"></path><path d="M276.62,154.84a5.34,5.34,0,0,1-.48-2.05,12,12,0,0,1,3.37-9.35,5.31,5.31,0,0,1,1.67-1.27c.05.07-.57.57-1.4,1.52a13.43,13.43,0,0,0-3.27,9.08C276.54,154,276.71,154.82,276.62,154.84Z" style="fill:#fff"></path><path d="M287.43,150.11s.46-.65,1.17-1.75c1.86-2.82,4.92-9.87,6.7-15,2.47-7.08,4.76-21.58,4.76-21.58l4.74.88s-5.83,29.7-14.3,39.53Z" style="fill:#455a64"></path><path d="M235.87,231.71s0,.17-.05.51-.11.86-.2,1.51c-.16,1.32-.53,3.25-.64,5.78a95.48,95.48,0,0,0,.93,21.35c.17,1.12.34,2.26.52,3.43s.44,2.35.67,3.56c.43,2.44,1.05,4.93,1.62,7.53,1.26,5.16,2.75,10.65,4.48,16.38s3.64,11.71,5.6,17.92,3.8,12.7,6,19.25a171.21,171.21,0,0,1,5.46,19.44,59.89,59.89,0,0,1,1,18.76,37,37,0,0,1-5.56,16,17.64,17.64,0,0,1-5.51,5.41,10.62,10.62,0,0,1-7,1.34,48,48,0,0,1-6.28-1.58,9.85,9.85,0,0,0-1.45-.35l-.72-.12c-.23,0-.47,0-.71,0a8.16,8.16,0,0,0-1.4,0,11.68,11.68,0,0,0-1.34.19,56.17,56.17,0,0,0-8.75,2.82,32.08,32.08,0,0,1-5.59,1.65l-.88.12-.63,0h-.52s.17,0,.51-.06l.64-.05.86-.16a33.62,33.62,0,0,0,5.54-1.73,55.64,55.64,0,0,1,8.77-2.92,11.57,11.57,0,0,1,1.37-.2,8.44,8.44,0,0,1,1.43-.05c.24,0,.49,0,.74,0l.74.12A13.21,13.21,0,0,1,237,388a46.67,46.67,0,0,0,6.24,1.53,10.19,10.19,0,0,0,6.71-1.31,17.17,17.17,0,0,0,5.36-5.31,36.83,36.83,0,0,0,5.45-15.83,59.91,59.91,0,0,0-1-18.61,172,172,0,0,0-5.45-19.38c-2.19-6.55-4-13.06-6-19.26s-3.85-12.2-5.57-17.94-3.19-11.23-4.44-16.41c-.57-2.61-1.18-5.11-1.59-7.55-.23-1.22-.47-2.41-.66-3.58s-.34-2.32-.5-3.44a92.49,92.49,0,0,1-.77-21.41,51.8,51.8,0,0,1,.74-5.79c.11-.64.19-1.14.25-1.5S235.87,231.71,235.87,231.71Z" style="fill:#263238"></path><path d="M235.87,231.71a21.27,21.27,0,0,1-4.2-.58,56,56,0,0,1-11.19-3.48,57.1,57.1,0,0,1-14.56-9.44,44.59,44.59,0,0,1-12.16-17.34,53.19,53.19,0,0,1-3-21,90.22,90.22,0,0,1,.95-9.25c.4-2.88.83-5.55,1.3-8a103.19,103.19,0,0,1,2.85-11.37c.41-1.32.74-2.34,1-3l.27-.78c.07-.18.11-.27.12-.26s0,.09-.07.27-.13.47-.22.8c-.22.73-.52,1.75-.9,3.05-.75,2.66-1.79,6.52-2.68,11.37-.44,2.43-.85,5.1-1.23,8s-.79,5.95-.91,9.21a53.44,53.44,0,0,0,3,20.8,44.4,44.4,0,0,0,12,17.16,58,58,0,0,0,14.39,9.47,59.52,59.52,0,0,0,11.09,3.61C234.39,231.52,236,231.71,235.87,231.71Z" style="fill:#263238"></path><path d="M287.62,164.64s0,.08-.07.23l-.24.64c-.24.59-.56,1.41-1,2.44-.84,2.12-2,5.21-3.34,9.05s-2.89,8.46-4.71,13.54a136.54,136.54,0,0,1-6.76,16.21,67.08,67.08,0,0,1-4.68,7.82,45.81,45.81,0,0,1-5.51,6.47,37.19,37.19,0,0,1-12,7.82,43.54,43.54,0,0,1-9.32,2.57c-1.13.17-2,.25-2.61.32l-.68.07a.73.73,0,0,1-.24,0l.23-.06.68-.11,2.58-.42a46.87,46.87,0,0,0,9.22-2.71,37.3,37.3,0,0,0,11.8-7.83,46.05,46.05,0,0,0,5.43-6.41,68.4,68.4,0,0,0,4.63-7.77,139.66,139.66,0,0,0,6.78-16.13c1.81-5.07,3.44-9.64,4.81-13.5s2.61-6.91,3.5-9c.44-1.05.82-1.86,1.06-2.41l.3-.61A.72.72,0,0,1,287.62,164.64Z" style="fill:#263238"></path><path d="M105.71,286.55,86.8,313.72c-13.8,20.35-10.12,38.75,2.24,48l65.27,39.34,17.39-17.86-50.87-46.94,19.36-25.8Z" style="fill:#b56760"></path><path d="M121.75,337.14a23.25,23.25,0,0,0-6.48-.79,23,23,0,0,0-6.33,1.57,5.29,5.29,0,0,1,1.69-1,13.83,13.83,0,0,1,9.32-.56A5.27,5.27,0,0,1,121.75,337.14Z" style="fill:#8a4a43"></path><path d="M169.29,380.83c3.62,1.33,9.37,5.5,11.47,8.55,1.52,2.21,11.87,3.6,17.45,4.2a2.56,2.56,0,0,1,1.78,4.09,7.93,7.93,0,0,1-4.89,3.09c-7,1.35-8.21.36-12-.73-2.89-.83-4.76-1.55-6.86.93a7,7,0,0,0-1.18,2.18,11.4,11.4,0,0,0,.13,7.58l1.18,3.34s13.57,10.79,13.38,13.65a5.82,5.82,0,0,1-1.53,4L171,423.3l5.4,6.95s11.65,5.65,12.41,9.28-2.28,3.05-2.28,3.05l-11.9-4.85-3.3-1.56s11.19,11,7,13.08l-1.68,1.14-2.71-2.66s.57,1.14-.95.95-9.46-7.44-9.46-7.44l-6-13.92s-3.84-8.09-3.27-11.71a18.56,18.56,0,0,1-.17-4.77c.19-3.24.25-9.73.25-9.73l-12.91-7.79" style="fill:#b56760"></path><path d="M141.4,393.32s.3.16.86.49l2.51,1.47,9.6,5.72.06,0v.07c0,2-.09,4.25-.15,6.67,0,1.22,0,2.49-.1,3.79a19.32,19.32,0,0,0,.21,4v.07a8.93,8.93,0,0,0,.2,2.89,26,26,0,0,0,.8,3,58.65,58.65,0,0,0,2.46,6.14l5.83,13.5-.06-.08c1.63,1.48,3.34,3,5.12,4.44.89.73,1.81,1.46,2.77,2.13a5.44,5.44,0,0,0,1.46.8,1.08,1.08,0,0,0,.7-.08c.13-.06.12-.32,0-.54l-.54-1.16.91.89,2.7,2.67-.29,0,1.67-1.15h0a1.47,1.47,0,0,0,.81-1.36,5,5,0,0,0-.46-1.8,19.14,19.14,0,0,0-2-3.36,56.42,56.42,0,0,0-5.39-6.17l-1-1,1.26.59c1.2.55,2.39,1.14,3.62,1.68l3.79,1.54,7.78,3.17,0,0a1.77,1.77,0,0,0,1.87-.69,3.07,3.07,0,0,0,.06-2.2c-.52-1.43-1.9-2.54-3.19-3.55a59.58,59.58,0,0,0-8.7-5.24l-.32-.15-.06,0,0,0-5.39-7-.69-.88,1,.49,17.24,8.41-.27,0a5.4,5.4,0,0,0,1.26-2.58,5.7,5.7,0,0,0,.16-1.43,3.43,3.43,0,0,0-.59-1.26,30.15,30.15,0,0,0-4-4.42c-2.85-2.72-5.8-5.23-8.71-7.59l-.06,0,0-.06c-.47-1.36-1-2.66-1.4-4a12.19,12.19,0,0,1-.49-4.19,10.38,10.38,0,0,1,1.07-4,6.27,6.27,0,0,1,1.24-1.65,4.36,4.36,0,0,1,1.75-1.09,7,7,0,0,1,3.93.36c1.23.34,2.44.73,3.62,1.09a15.73,15.73,0,0,0,7.11.28c.58-.09,1.15-.18,1.72-.29a8,8,0,0,0,1.63-.42,7.49,7.49,0,0,0,2.74-1.75,6.61,6.61,0,0,0,1-1.22,2.38,2.38,0,0,0-1.6-3.45c-4-.48-7.8-1-11.14-1.71a27.54,27.54,0,0,1-4.68-1.35,4.71,4.71,0,0,1-1.9-1.22,16.07,16.07,0,0,0-1.31-1.59,31.73,31.73,0,0,0-5.18-4.33,28.51,28.51,0,0,0-3.62-2.16c-.43-.21-.76-.37-1-.46l-.34-.15a9.56,9.56,0,0,1,1.36.54,27.18,27.18,0,0,1,3.67,2.1,31.89,31.89,0,0,1,5.26,4.31,16.36,16.36,0,0,1,1.33,1.6,4.73,4.73,0,0,0,1.81,1.13,28.16,28.16,0,0,0,4.64,1.3c3.34.7,7.06,1.18,11.15,1.65a2.72,2.72,0,0,1,1.85,4,6.77,6.77,0,0,1-1.05,1.32,8.24,8.24,0,0,1-2.87,1.85,10.11,10.11,0,0,1-1.7.44c-.57.11-1.15.2-1.73.29a23.63,23.63,0,0,1-3.6.29,12.88,12.88,0,0,1-3.68-.56c-1.21-.35-2.39-.74-3.63-1.08a6.59,6.59,0,0,0-3.68-.34,3.82,3.82,0,0,0-1.57,1,5.64,5.64,0,0,0-1.15,1.54,9.93,9.93,0,0,0-1,3.81,11.79,11.79,0,0,0,.48,4c.42,1.31.93,2.64,1.4,4l-.08-.11c2.94,2.37,5.89,4.86,8.76,7.6a30.5,30.5,0,0,1,4,4.5,3.89,3.89,0,0,1,.67,1.47,5.5,5.5,0,0,1-.17,1.6,5.66,5.66,0,0,1-1.42,2.86l-.12.12-.16-.08-17.24-8.4.32-.4,5.4,6.95-.1-.07.33.16a59.22,59.22,0,0,1,8.79,5.29,23.45,23.45,0,0,1,1.93,1.66,5.66,5.66,0,0,1,1.44,2.16,4.27,4.27,0,0,1,.19,1.28,2.71,2.71,0,0,1-.3,1.32,1.9,1.9,0,0,1-1.08.85,2.86,2.86,0,0,1-1.33.09h-.05l-7.79-3.18-3.79-1.55c-1.24-.55-2.43-1.14-3.63-1.69l.28-.41a56.55,56.55,0,0,1,5.43,6.24,19.42,19.42,0,0,1,2.09,3.46,5.4,5.4,0,0,1,.49,2,1.94,1.94,0,0,1-1.08,1.78h0l-1.68,1.14-.16.11-.14-.14-2.7-2.67.37-.27a1.43,1.43,0,0,1,.13.54.7.7,0,0,1-.28.58,1.46,1.46,0,0,1-1,.17,5.3,5.3,0,0,1-1.67-.89c-1-.68-1.9-1.42-2.8-2.16-1.79-1.48-3.49-3-5.12-4.46l0,0,0,0-5.78-13.52a57.4,57.4,0,0,1-2.45-6.18,26.07,26.07,0,0,1-.8-3,9.31,9.31,0,0,1-.18-3v.07a19.7,19.7,0,0,1-.2-4.09c.07-1.32.08-2.57.13-3.79.07-2.42.13-4.65.19-6.66l.06.1-9.54-5.82-2.48-1.53C141.67,393.52,141.4,393.32,141.4,393.32Z" style="fill:#8a4a43"></path><path d="M160.05,428a30.92,30.92,0,0,1,1.41,3.3,37.07,37.07,0,0,0,4.22,7.48,26.87,26.87,0,0,0,3.23,3.44c1.07,1,2.05,1.91,2.8,2.73a15.91,15.91,0,0,1,1.64,2.09,3.21,3.21,0,0,1,.44.86c-.08.05-.77-1.14-2.34-2.69-.78-.78-1.77-1.65-2.86-2.63a25.31,25.31,0,0,1-3.33-3.48,32.36,32.36,0,0,1-4.14-7.66c-.38-1.05-.66-1.91-.84-2.5A3.67,3.67,0,0,1,160.05,428Z" style="fill:#8a4a43"></path><path d="M160.54,420a3,3,0,0,1,.54.69,20.25,20.25,0,0,1,1.17,2.06c.91,1.78,1.83,4.39,3.21,7.06a15.36,15.36,0,0,0,5,5.65c1.64,1.08,2.8,1.53,2.76,1.62a3.17,3.17,0,0,1-.84-.25,16.44,16.44,0,0,1-2.12-1.06,14.51,14.51,0,0,1-5.31-5.72c-1.41-2.73-2.26-5.34-3.09-7.14S160.47,420.08,160.54,420Z" style="fill:#8a4a43"></path><path d="M167,416.7c.14-.05.78,1.59,1.86,3.44s2.17,3.23,2,3.33A12.45,12.45,0,0,1,167,416.7Z" style="fill:#8a4a43"></path><path d="M277.79,212.89c.51,2.19,26.65,88.31,30.1,100.93s13.65,39,28.13,35.61,21.5-15.69,22.54-29.92-3.76-29.53-9.47-36.05-48.17-73.6-48.17-73.6Z" style="fill:#b56760"></path><path d="M291.43,167.25s-5.67,12.62-9.71,19.08-3.93,26.56-3.93,26.56l22.87-.1,8.07-39.46,1.43-16.94L300.67,132a6.07,6.07,0,0,0-4,5.73c-.11,4.53.37,3.26.37,3.26s-3.75-1-3.52,5.4-.15,14.54-.15,14.54Z" style="fill:#b56760"></path><path d="M293.38,161a1.34,1.34,0,0,1,0-.43c0-.33,0-.74,0-1.24,0-1.14,0-2.7,0-4.62s0-4.36,0-7a18.69,18.69,0,0,1,.35-4.26,4.82,4.82,0,0,1,1-2.13,2.16,2.16,0,0,1,2.45-.47l0,0,0,0,1.37,1.42,0,0,0,.05c.63,1.72,1.22,3.53,1.71,5.41A46,46,0,0,1,302,159.27a44.22,44.22,0,0,1-.74,9.47c-.53,2.65-1.15,4.75-1.57,6.2l-.5,1.66a2.52,2.52,0,0,1-.21.57,3.2,3.2,0,0,1,.11-.6c.11-.44.24-1,.41-1.69.35-1.46.91-3.57,1.4-6.21a45.41,45.41,0,0,0,.62-9.39,46.32,46.32,0,0,0-1.6-11.39c-.49-1.87-1.07-3.66-1.69-5.37l.05.09-1.36-1.43.07,0a1.65,1.65,0,0,0-1.88.37,4.29,4.29,0,0,0-.93,1.9,17.91,17.91,0,0,0-.37,4.14c-.06,2.66-.11,5-.15,7s-.1,3.48-.13,4.63c0,.49,0,.9-.05,1.23A2.14,2.14,0,0,1,293.38,161Z" style="fill:#8a4a43"></path><path d="M301.12,210.54a38.65,38.65,0,0,1-4.56,1,36.85,36.85,0,0,1-4.56,1,14.75,14.75,0,0,1,4.45-1.5A15.11,15.11,0,0,1,301.12,210.54Z" style="fill:#8a4a43"></path><path d="M280,190.65a12.92,12.92,0,0,1-.31,1.3,32.84,32.84,0,0,0-.62,3.56c-.41,3-.69,7.25-.88,11.92,0,1.17-.08,2.31-.12,3.41a14.6,14.6,0,0,0,.16,3.13,35.72,35.72,0,0,0,1.23,5.2c.45,1.46.87,2.62,1.16,3.43a8.28,8.28,0,0,1,.42,1.27,6.12,6.12,0,0,1-.61-1.19c-.34-.79-.82-1.94-1.32-3.4a32.67,32.67,0,0,1-1.36-5.24,14.73,14.73,0,0,1-.19-3.22c0-1.1.07-2.24.11-3.41a105.85,105.85,0,0,1,1-12,27,27,0,0,1,.79-3.56,7.6,7.6,0,0,1,.35-.93C279.93,190.75,280,190.64,280,190.65Z" style="fill:#8a4a43"></path></g></svg>